<?xml version="1.0" encoding="utf-8"?>
<!-- Generator: Adobe Illustrator 25.2.1, SVG Export Plug-In . SVG Version: 6.00 Build 0)  -->
<svg version="1.1" id="Layer_1" xmlns="http://www.w3.org/2000/svg" xmlns:xlink="http://www.w3.org/1999/xlink" x="0px" y="0px"
	 viewBox="0 0 300 300" style="enable-background:new 0 0 300 300;" xml:space="preserve">
<style type="text/css">
	.st0{fill:#3552FF;}
	.st1{fill:#FFFFFF;}
	.st2{fill:#FF4343;}
	.st3{fill:#8E6BFE;}
	.st4{fill:#FFFFFF;stroke:#FFFFFF;stroke-width:0.25;stroke-miterlimit:10;}
	.st5{fill:#FFFFFF;fill-opacity:0;}
	.st6{fill:#8E6BFE;fill-opacity:0;}
	.st7{fill-rule:evenodd;clip-rule:evenodd;fill:#FFFFFF;stroke:#8E6BFE;stroke-width:1.4;stroke-miterlimit:10;}
	.st8{fill:#FFFFFF;stroke:#FFFFFF;stroke-width:0.5;stroke-miterlimit:10;}
	.st9{fill:#FFFFFF;stroke:#8E6BFE;stroke-miterlimit:10;}
	.st10{fill:#FFFFFF;stroke:#8E6BFE;stroke-width:0.5;stroke-miterlimit:10;}
</style>
<g>
	<ellipse class="st0" cx="150" cy="151" rx="121" ry="122"/>
	<g>
		<g>
			<g>
				<g>
					<path class="st1" d="M149.9,225.4c-0.8,0-1.6-0.2-2.2-0.6c-18.8-12.6-78.6-56.8-65.5-98.5c4.7-15.1,16-24.4,30.9-25.4
						c14.4-1,28.7,6,37,17.4c8.3-11.4,22.5-18.4,37-17.4c14.9,1,26.1,10.3,30.9,25.4c0,0,0,0,0,0c13.1,41.8-46.7,85.9-65.4,98.4
						C151.7,225.1,150.8,225.4,149.9,225.4z M115.7,108.9c-0.7,0-1.4,0-2.1,0.1c-6.7,0.5-18.6,3.6-23.6,19.7
						c-11.1,35.5,44,76.7,60,87.7c16.4-11.3,71.1-52.3,60-87.7v0c-5-16.1-16.9-19.2-23.6-19.7c-13.3-0.9-27.1,7.1-32.7,19
						c-0.7,1.4-2.1,2.4-3.7,2.4c-1.6,0-3-0.9-3.7-2.4C141,116.7,128.3,108.9,115.7,108.9z"/>
					<path class="st1" d="M149.9,226.1c-1,0-1.9-0.3-2.6-0.8c-18.8-12.6-79.1-57.1-65.8-99.4c4.8-15.4,16.3-24.9,31.5-25.9
						c0.9-0.1,1.8-0.1,2.7-0.1c13.2,0,26.3,6.5,34.3,17c8-10.5,21.2-17,34.3-17c0.9,0,1.8,0,2.7,0.1c15.2,1,26.7,10.5,31.5,25.9
						c13.2,42.3-46.9,86.7-65.7,99.3C152,225.8,151,226.1,149.9,226.1z M115.7,101.5c-0.9,0-1.7,0-2.6,0.1
						c-14.5,1-25.6,10.1-30.2,24.9c-12.9,41.3,46.7,85.2,65.3,97.7c1.1,0.7,2.8,0.6,3.9-0.1c18.5-12.5,78-56.3,65.1-97.6
						c-4.6-14.8-15.7-23.9-30.2-24.9c-0.9-0.1-1.7-0.1-2.6-0.1c-13,0-26,6.6-33.7,17.2l-0.6,0.8l-0.6-0.8
						C141.7,108,128.7,101.5,115.7,101.5z M150,217.3l-0.4-0.3c-17-11.7-71.5-52.7-60.3-88.6c5.2-16.5,17.4-19.7,24.3-20.2
						c0.7,0,1.4-0.1,2.1-0.1c13,0,25.9,8,31.3,19.5c0.5,1.2,1.7,1.9,3,1.9c1.3,0,2.5-0.8,3-1.9c5.7-12.2,19.8-20.3,33.4-19.4
						c6.8,0.5,19.1,3.7,24.3,20.2c11.2,35.7-43.3,76.8-60.3,88.6L150,217.3z M115.7,109.7c-0.7,0-1.4,0-2,0.1
						c-6.5,0.4-18,3.5-22.9,19.1c-10.8,34.6,42.1,74.7,59.3,86.6c17.2-12,70.1-52.1,59.3-86.6c-4.9-15.6-16.5-18.7-23-19.1
						c-0.7-0.1-1.4-0.1-2.1-0.1c-12.4,0-24.7,7.6-29.9,18.6c-0.8,1.7-2.5,2.8-4.4,2.8c-1.9,0-3.6-1.1-4.4-2.8
						C140.5,117.3,128.2,109.7,115.7,109.7z"/>
				</g>
			</g>
			<g>
				<g>
					<path class="st1" d="M150,277.7c-70.4,0-127.7-57.3-127.7-127.7S79.6,22.3,150,22.3c70.4,0,127.7,57.3,127.7,127.7
						S220.4,277.7,150,277.7z M150,30.5C84.1,30.5,30.5,84.1,30.5,150c0,65.9,53.6,119.5,119.5,119.5S269.5,215.9,269.5,150
						C269.5,84.1,215.9,30.5,150,30.5z"/>
					<path class="st1" d="M150,278.4c-70.8,0-128.4-57.6-128.4-128.4S79.2,21.6,150,21.6S278.4,79.2,278.4,150
						S220.8,278.4,150,278.4z M150,23.1C80,23.1,23.1,80,23.1,150S80,276.9,150,276.9S276.9,220,276.9,150S220,23.1,150,23.1z
						 M150,270.2c-66.3,0-120.2-53.9-120.2-120.2C29.8,83.7,83.7,29.8,150,29.8c66.3,0,120.2,53.9,120.2,120.2
						C270.2,216.3,216.3,270.2,150,270.2z M150,31.3C84.5,31.3,31.3,84.5,31.3,150c0,65.5,53.3,118.7,118.7,118.7
						c65.5,0,118.7-53.3,118.7-118.7C268.7,84.5,215.5,31.3,150,31.3z"/>
				</g>
			</g>
		</g>
	</g>
	<polygon class="st1" points="137,113 122,105 106,105 92,114 84,130 89,163 104,183 145,218 149,221 161,215 201,176 215,141 
		211,121 199,110 179,103 161,114 149,122 	"/>
</g>
</svg>
