<?xml version="1.0" encoding="utf-8"?>
<!-- Generator: Adobe Illustrator 25.2.1, SVG Export Plug-In . SVG Version: 6.00 Build 0)  -->
<svg version="1.1" id="Layer_1" xmlns="http://www.w3.org/2000/svg" xmlns:xlink="http://www.w3.org/1999/xlink" x="0px" y="0px"
	 viewBox="0 0 300 300" style="enable-background:new 0 0 300 300;" xml:space="preserve">
<style type="text/css">
	.st0{fill:#3552FF;}
	.st1{fill:#FFFFFF;}
	.st2{fill:#FF4343;}
	.st3{fill:#8E6BFE;}
	.st4{fill:#FFFFFF;stroke:#FFFFFF;stroke-width:0.25;stroke-miterlimit:10;}
	.st5{fill:#FFFFFF;fill-opacity:0;}
	.st6{fill:#8E6BFE;fill-opacity:0;}
	.st7{fill-rule:evenodd;clip-rule:evenodd;fill:#FFFFFF;stroke:#8E6BFE;stroke-width:1.4;stroke-miterlimit:10;}
	.st8{fill:#FFFFFF;stroke:#FFFFFF;stroke-width:0.5;stroke-miterlimit:10;}
	.st9{fill:#FFFFFF;stroke:#8E6BFE;stroke-miterlimit:10;}
	.st10{fill:#FFFFFF;stroke:#8E6BFE;stroke-width:0.5;stroke-miterlimit:10;}
</style>
<g>
	<path class="st0" d="M171,17c0,0-60-10-104,44L47,99l-4,39l6,33l5,9l-19,25l-10,11v16l14,49l39,1l51-5l6-12l-1.5-7.5l7-8l24,1
		l51-15l20-15l23-29l12-29l4-44l-10-34l-22-33l-42-28L171,17z"/>
	<g>
		<g>
			<path class="st1" d="M114.9,78.9c-6.7,0-12.2,5.5-12.2,12.2c0,6.7,5.5,12.2,12.2,12.2c6.7,0,12.2-5.5,12.2-12.2
				C127.2,84.4,121.7,78.9,114.9,78.9z"/>
			<path class="st1" d="M85.8,32.4c1.4,1.9,4.3,2.3,6.3,0.9c0.7-0.5,17.7-12.9,40.8-1.9c1.1,0.5,2.3,0.6,3.4,0.2
				c1.1-0.4,2-1.2,2.5-2.3c1.1-2.2,0.1-4.9-2.1-6c-8.4-4-16.2-5.4-23-5.4c-16,0-26.5,7.8-27.1,8.3C84.7,27.6,84.3,30.4,85.8,32.4z"
				/>
			<path class="st1" d="M159.1,253.7c66.3,0,120.2-53.9,120.2-120.2c0-61.9-46.4-113.3-107.9-119.6c-2.5-0.2-4.7,1.6-4.9,4
				c-0.1,1.2,0.2,2.3,1,3.3c0.8,0.9,1.8,1.5,3,1.6c56.9,5.8,99.8,53.4,99.8,110.6c0,61.3-49.9,111.2-111.2,111.2
				c-4.2,0-8.5-0.2-12.6-0.7l-1.9-0.2l-0.4-1.9c-0.3-1.5-0.8-2.8-1.5-4.1l-1.2-2.1l1.9-1.5c1.8-1.3,3.2-2.9,4.3-4.5
				c2-3.1,2.6-6.7,1.7-10.4c-0.2-0.8-0.4-1.6-0.8-2.2l-1.4-3.1l19.4-3.9c8.6-1.7,14.2-10.1,12.6-18.6c-1.6-8.6-9.6-14.3-18.2-12.9
				l-64,10l0.6-3.7c3.2-19.7,3.7-34.1,1.5-40.5c-2.1-6.2-7.7-10.2-14.5-10.6c-9.6-0.4-19,6.2-23.7,16.9c-1.7,3.7-3.1,7.1-4.3,10.3
				l-3.1,7.8l-2.1-8.2c-2.2-8.8-3.4-18-3.4-27.2c0-24.7,7.9-48.1,22.9-67.7c1.5-2,1.1-4.8-0.8-6.3c-0.8-0.6-1.7-0.9-2.7-0.9
				c-0.2,0-0.4,0-0.6,0c-1.2,0.2-2.2,0.8-3,1.7C47.5,81.6,39,106.8,39,133.5c0,15.8,3,31.2,9,45.7l0.5,1.2l-0.6,1.1
				c-1.3,2.5-2.7,4.9-4.4,7.2c-7.5,10.7-20.1,20.4-20.2,20.5c-0.9,0.7-1.5,1.8-1.7,2.9c-0.1,0.9-3.1,23.1,2.4,42.5
				c5.5,19.3,12.8,27.7,13.7,28.6c0.8,0.9,1.9,1.4,3.1,1.5c8.5,0.4,25.3,1.2,42.2,1.2c30.6,0,41.6-2.4,45.3-4.4
				c9.7-5.1,11.5-11.6,11.8-15c0.2-2.1-0.2-4.3-1-6.2l-0.7-1.5l1.1-1.3c0.9-1.1,1.8-2.2,2.5-3.4l0.9-1.5l1.8,0.2
				C149.4,253.4,154.3,253.7,159.1,253.7z M140.1,225c-2.3,3.5-9.3,5.6-11.6,6.1c-2.3,0.4-3.9,2.5-3.6,4.8c0.2,2.3,2.1,4,4.5,4
				c1.9,0,5.6,0.8,6.2,4c1,5.7-5.1,10.1-5.8,10.5c-1.3,0.8-2.1,2.2-2.2,3.7c-0.1,1.5,0.6,2.9,1.8,3.8c1.3,1,2,2.4,1.9,4
				c-0.2,2.7-2.7,5.5-7.1,7.8c-4.6,2.4-21.8,3.3-40.9,3.3c-13.2,0-27.3-0.4-38.6-1l-1.4-0.1l-0.8-1.1c-2.2-3.3-6.4-10.7-9.8-22.6
				c-4-13.8-3.1-29.8-2.5-36l0.1-1.1l0.9-0.7c3.8-3.1,13.2-11.3,19.7-20.6c5.6-8,8.4-15.4,11.8-24c1.6-4.2,3.6-9.5,6.3-15.5
				c3.7-8.4,10.3-12,15.2-11.6c4.3,0.2,5.9,2.9,6.4,4.5c2.8,8.3-1.6,35.9-3.6,45.9c-0.3,1.4,0.2,2.9,1.2,4c1,1.1,2.5,1.5,3.9,1.3
				l70.3-10.9c3.8-0.6,7.3,1.9,8.1,5.7c0.7,3.8-1.8,7.5-5.6,8.2l-35.1,7c-2.2,0.4-3.8,2.5-3.6,4.8c0.2,2.3,2.1,4,4.4,4.1
				c1.9,0,9.3,0.8,10.2,4.2C140.9,222.9,140.8,223.9,140.1,225z"/>
			<path class="st1" d="M180.4,67.2c0.1,0,4.7-1.8,11.7-1.8c7.6,0,17.9,2.1,28.1,11.1h0c1.8,1.6,4.8,1.4,6.3-0.4
				c0.8-0.9,1.2-2.1,1.1-3.2c-0.1-1.2-0.6-2.3-1.5-3.1c-23.5-20.5-48-11.2-49-10.8c-1.1,0.4-2,1.3-2.5,2.4c-0.5,1.1-0.5,2.3,0,3.4
				C175.5,67,178.1,68.1,180.4,67.2z"/>
			<path class="st1" d="M163.9,150.3l-32-3.6c-0.2,0-0.3,0-0.5,0c-2.3,0-4.2,1.7-4.4,4v0c-0.1,1.2,0.2,2.4,0.9,3.3
				c0.7,0.9,1.8,1.5,3,1.7l32.1,3.6c0,0,0,0,0.1,0c2.7,0,4.6-1.7,4.9-4c0.1-1.2-0.2-2.4-1-3.3C166.2,151,165.1,150.4,163.9,150.3z"
				/>
			<path class="st1" d="M193.7,87c-6.7,0-12.2,5.5-12.2,12.2c0,6.7,5.5,12.2,12.2,12.2c6.7,0,12.2-5.5,12.2-12.2
				C205.9,92.4,200.4,87,193.7,87z"/>
		</g>
	</g>
</g>
</svg>
