<?xml version="1.0" encoding="utf-8"?>
<!-- Generator: Adobe Illustrator 25.2.1, SVG Export Plug-In . SVG Version: 6.00 Build 0)  -->
<svg version="1.1" id="Layer_1" xmlns="http://www.w3.org/2000/svg" xmlns:xlink="http://www.w3.org/1999/xlink" x="0px" y="0px"
	 viewBox="0 0 1289 300" style="enable-background:new 0 0 1289 300;" xml:space="preserve">
<style type="text/css">
	.st0{fill:#3552FF;}
	.st1{fill:#FFFFFF;}
	.st2{fill:#FF4343;}
	.st3{fill:#8E6BFE;}
	.st4{fill:#FFFFFF;stroke:#FFFFFF;stroke-width:0.25;stroke-miterlimit:10;}
	.st5{font-family:'Poppins-SemiBold';}
	.st6{font-size:36.2746px;}
	.st7{fill:#FFFFFF;fill-opacity:0;}
	.st8{fill:#8E6BFE;fill-opacity:0;}
	.st9{fill-rule:evenodd;clip-rule:evenodd;fill:#FFFFFF;stroke:#8E6BFE;stroke-width:1.4;stroke-miterlimit:10;}
	.st10{fill:#FFFFFF;stroke:#FFFFFF;stroke-width:0.5;stroke-miterlimit:10;}
	.st11{fill:#FFFFFF;stroke:#8E6BFE;stroke-miterlimit:10;}
	.st12{fill:#FFFFFF;stroke:#8E6BFE;stroke-width:0.5;stroke-miterlimit:10;}
</style>
<g>
	<path class="st0" d="M1253.3,286.1H32.3c-10.9,0-19.7-8.8-19.7-19.7V31.7c0-10.9,8.8-19.7,19.7-19.7h1221
		c10.9,0,19.7,8.8,19.7,19.7v234.8C1273,277.3,1264.2,286.1,1253.3,286.1z"/>
	<g>
		<g>
			<g>
				<path class="st4" d="M496.6,161.4c0,0-0.1,0-0.1,0l-42.2-0.5c-2.5,0-4.9-1-6.9-2.7c-0.6-0.5-1.3-0.8-2.2-1
					c-2.2-0.6-3.8-2.5-3.8-4.8V107c0-0.9,0.2-1.7,0.6-2.4l11.1-19.4c2.5-4.4,4.3-9.2,5.2-14.2l1-5.7c0.1-0.7,0.8-5.4,5.3-6.6
					c0.7-0.2,1.4-0.3,2.2-0.3c4.3,0.1,7.7,5.2,10.2,15.2c0.8,3.3,0.9,6.6,0.4,10l-2.9,16.6l31,0.4c5,0.1,9.2,4.1,9.3,8.9
					c0,2.5-0.9,4.8-2.6,6.6c-0.8,0.8-1.7,1.4-2.6,1.8c1.4,1.6,2.3,3.8,2.2,6.1c0,3.6-2.2,6.7-5.3,8.1c1.4,1.6,2.3,3.8,2.2,6.1
					c0,3.6-2.2,6.7-5.3,8.1c1.4,1.6,2.3,3.8,2.2,6.1c0,2.4-1,4.7-2.7,6.4C501.2,160.5,499,161.4,496.6,161.4z M466.7,61.7
					c-0.4,0-0.8,0.1-1.2,0.2c-2.5,0.7-2.9,3.8-2.9,3.8c0,0,0,0.1,0,0.1l-1,5.7c-1,5.4-2.9,10.5-5.6,15.3l-11.1,19.4
					c-0.1,0.2-0.2,0.5-0.2,0.8v45.4c0,0.7,0.5,1.4,1.3,1.6c1.4,0.4,2.6,0.9,3.5,1.7c1.5,1.2,3.2,1.9,4.9,1.9l42.2,0.5
					c1.6,0,3-0.6,4.1-1.6c1.1-1.1,1.7-2.5,1.7-4.1c0-2.3-1.3-4.4-3.5-5.4c-0.7-0.3-1.1-1.1-1-1.9c0.2-0.8,0.8-1.3,1.6-1.3
					c0,0,0,0,0.1,0c3.1,0,5.7-2.5,5.8-5.7c0-2.3-1.3-4.4-3.5-5.4c-0.7-0.3-1.1-1.1-1-1.9c0.2-0.8,0.8-1.3,1.6-1.3
					c3.1,0.1,5.8-2.5,5.8-5.7c0-2.3-1.3-4.4-3.5-5.4c-0.7-0.3-1.1-1.1-1-1.9c0.2-0.8,0.8-1.3,1.6-1.3c0,0,0.1,0,0.1,0
					c1.5,0,3-0.6,4.1-1.7c1.1-1.1,1.7-2.6,1.7-4.2c-0.1-3.1-2.7-5.6-6-5.7l-32.8-0.4c-0.5,0-1-0.2-1.3-0.6l-0.1-0.1
					c-0.3-0.4-0.4-0.9-0.4-1.4l3.2-18.4c0.5-2.9,0.4-5.8-0.3-8.6C471.8,66.6,469.1,61.7,466.7,61.7
					C466.7,61.7,466.7,61.7,466.7,61.7z"/>
			</g>
			<g>
				<path class="st4" d="M403.8,160.1c-1.3,0-2.5-0.5-3.4-1.4c-0.9-0.9-1.4-2.1-1.4-3.4l-0.1-50.5c0-2.6,2.2-4.8,4.8-4.8l27.8-0.1
					c0,0,0,0,0,0c1.3,0,2.5,0.5,3.4,1.4c0.9,0.9,1.4,2.1,1.4,3.4l0.1,50.5c0,2.6-2.2,4.8-4.8,4.8L403.8,160.1
					C403.8,160.1,403.8,160.1,403.8,160.1z M431.5,103.2l-27.8,0.1c-0.9,0-1.5,0.7-1.5,1.5l0.1,50.5c0,0.4,0.2,0.8,0.4,1
					c0.3,0.3,0.7,0.4,1.1,0.4c0,0,0,0,0,0l27.8-0.1c0.9,0,1.5-0.7,1.5-1.5l-0.1-50.5c0-0.4-0.2-0.8-0.4-1
					C432.3,103.4,431.9,103.2,431.5,103.2C431.5,103.2,431.5,103.2,431.5,103.2L431.5,103.2z M431.5,101.6L431.5,101.6L431.5,101.6z
					"/>
			</g>
		</g>
		<g>
			<path class="st4" d="M505.6,118.7H491c-0.9,0-1.7-0.7-1.7-1.7c0-0.9,0.7-1.7,1.7-1.7h14.6c0.9,0,1.7,0.7,1.7,1.7
				C507.2,117.9,506.5,118.7,505.6,118.7z"/>
		</g>
		<g>
			<path class="st4" d="M502.6,132.9H488c-0.9,0-1.7-0.7-1.7-1.7s0.7-1.7,1.7-1.7h14.6c0.9,0,1.7,0.7,1.7,1.7
				S503.5,132.9,502.6,132.9z"/>
		</g>
		<g>
			<path class="st4" d="M499.5,147.1h-14.6c-0.9,0-1.7-0.7-1.7-1.7c0-0.9,0.7-1.7,1.7-1.7h14.6c0.9,0,1.7,0.7,1.7,1.7
				C501.2,146.4,500.4,147.1,499.5,147.1z"/>
		</g>
	</g>
	<g>
		<g>
			<g>
				<path class="st4" d="M1032,69c0,0,0.1,0,0.1,0l42.2,0.5c2.5,0,4.9,1,6.9,2.7c0.6,0.5,1.3,0.8,2.2,1c2.2,0.6,3.8,2.5,3.8,4.8
					v45.4c0,0.9-0.2,1.7-0.6,2.4l-11.1,19.4c-2.5,4.4-4.3,9.2-5.2,14.2l-1,5.7c-0.1,0.7-0.8,5.4-5.3,6.6c-0.7,0.2-1.4,0.3-2.2,0.3
					c-4.3-0.1-7.7-5.2-10.2-15.2c-0.8-3.3-0.9-6.6-0.4-10l2.9-16.6l-31-0.4c-5-0.1-9.2-4.1-9.3-8.9c0-2.5,0.9-4.8,2.6-6.6
					c0.8-0.8,1.7-1.4,2.6-1.8c-1.4-1.6-2.3-3.8-2.2-6.1c0-3.6,2.2-6.7,5.3-8.1c-1.4-1.6-2.3-3.8-2.2-6.1c0-3.6,2.2-6.7,5.3-8.1
					c-1.4-1.6-2.3-3.8-2.2-6.1c0-2.4,1-4.7,2.7-6.4C1027.4,69.9,1029.6,69,1032,69z M1061.9,168.7c0.4,0,0.8-0.1,1.2-0.2
					c2.5-0.7,2.9-3.8,2.9-3.8c0,0,0-0.1,0-0.1l1-5.7c1-5.4,2.9-10.5,5.6-15.3l11.1-19.4c0.1-0.2,0.2-0.5,0.2-0.8V78.1
					c0-0.7-0.5-1.4-1.3-1.6c-1.4-0.4-2.6-0.9-3.5-1.7c-1.5-1.2-3.2-1.9-4.9-1.9l-42.2-0.5c-1.6,0-3,0.6-4.1,1.6
					c-1.1,1.1-1.7,2.5-1.7,4.1c0,2.3,1.3,4.4,3.5,5.4c0.7,0.3,1.1,1.1,1,1.9c-0.2,0.8-0.8,1.3-1.6,1.3c0,0,0,0-0.1,0
					c-3.1,0-5.7,2.5-5.8,5.7c0,2.3,1.3,4.4,3.5,5.4c0.7,0.3,1.1,1.1,1,1.9c-0.2,0.8-0.8,1.3-1.6,1.3c-3.1-0.1-5.8,2.5-5.8,5.7
					c0,2.3,1.3,4.4,3.5,5.4c0.7,0.3,1.1,1.1,1,1.9c-0.2,0.8-0.8,1.3-1.6,1.3c0,0-0.1,0-0.1,0c-1.5,0-3,0.6-4.1,1.7
					c-1.1,1.1-1.7,2.6-1.7,4.2c0.1,3.1,2.7,5.6,6,5.7l32.8,0.4c0.5,0,1,0.2,1.3,0.6l0.1,0.1c0.3,0.4,0.4,0.9,0.4,1.4l-3.2,18.4
					c-0.5,2.9-0.4,5.8,0.3,8.6C1056.8,163.8,1059.4,168.7,1061.9,168.7C1061.9,168.7,1061.9,168.7,1061.9,168.7z"/>
			</g>
			<g>
				<path class="st4" d="M1124.8,70.3c1.3,0,2.5,0.5,3.4,1.4c0.9,0.9,1.4,2.1,1.4,3.4l0.1,50.5c0,2.6-2.2,4.8-4.8,4.8l-27.8,0.1
					c0,0,0,0,0,0c-1.3,0-2.5-0.5-3.4-1.4c-0.9-0.9-1.4-2.1-1.4-3.4l-0.1-50.5c0-2.6,2.2-4.8,4.8-4.8L1124.8,70.3
					C1124.7,70.3,1124.8,70.3,1124.8,70.3z M1097.1,127.2l27.8-0.1c0.9,0,1.5-0.7,1.5-1.5l-0.1-50.5c0-0.4-0.2-0.8-0.4-1
					c-0.3-0.3-0.7-0.4-1.1-0.4c0,0,0,0,0,0l-27.8,0.1c-0.9,0-1.5,0.7-1.5,1.5l0.1,50.5c0,0.4,0.2,0.8,0.4,1
					C1096.3,127,1096.7,127.2,1097.1,127.2C1097.1,127.2,1097.1,127.2,1097.1,127.2L1097.1,127.2z M1097.1,128.8L1097.1,128.8
					L1097.1,128.8z"/>
			</g>
		</g>
		<g>
			<path class="st4" d="M1023,111.7h14.6c0.9,0,1.7,0.7,1.7,1.7c0,0.9-0.7,1.7-1.7,1.7H1023c-0.9,0-1.7-0.7-1.7-1.7
				C1021.3,112.4,1022.1,111.7,1023,111.7z"/>
		</g>
		<g>
			<path class="st4" d="M1026,97.5h14.6c0.9,0,1.7,0.7,1.7,1.7c0,0.9-0.7,1.7-1.7,1.7H1026c-0.9,0-1.7-0.7-1.7-1.7
				C1024.4,98.2,1025.1,97.5,1026,97.5z"/>
		</g>
		<g>
			<path class="st4" d="M1029.1,83.3h14.6c0.9,0,1.7,0.7,1.7,1.7c0,0.9-0.7,1.7-1.7,1.7h-14.6c-0.9,0-1.7-0.7-1.7-1.7
				C1027.4,84,1028.1,83.3,1029.1,83.3z"/>
		</g>
	</g>
	<g>
		<g>
			<path class="st4" d="M203.6,147.6c-0.3,0-0.7-0.1-0.9-0.3c-8.1-5.4-33.8-24.4-28.1-42.3c2-6.5,6.9-10.5,13.2-10.9
				c6.2-0.4,12.3,2.6,15.9,7.5c3.6-4.9,9.7-7.9,15.9-7.5c6.4,0.4,11.2,4.4,13.2,10.9c0,0,0,0,0,0c5.6,17.9-20.1,36.9-28.1,42.2
				C204.4,147.5,204,147.6,203.6,147.6z M188.9,97.6c-0.3,0-0.6,0-0.9,0c-2.9,0.2-8,1.5-10.1,8.4c-4.8,15.2,18.9,32.9,25.8,37.7
				c7-4.9,30.5-22.5,25.8-37.7v0c-2.2-6.9-7.3-8.2-10.1-8.4c-5.7-0.4-11.6,3-14,8.1c-0.3,0.6-0.9,1-1.6,1c-0.7,0-1.3-0.4-1.6-1
				C199.8,100.9,194.3,97.6,188.9,97.6z"/>
		</g>
		<g>
			<path class="st4" d="M203.6,170c-30.2,0-54.8-24.6-54.8-54.8s24.6-54.8,54.8-54.8c30.2,0,54.8,24.6,54.8,54.8
				S233.8,170,203.6,170z M203.6,63.9c-28.3,0-51.3,23-51.3,51.3c0,28.3,23,51.3,51.3,51.3s51.3-23,51.3-51.3
				C254.9,87,231.9,63.9,203.6,63.9z"/>
		</g>
	</g>
	<text transform="matrix(1 0 0 1 90.3003 225.2051)" class="st1 st5 st6">Me encanta</text>
	<text transform="matrix(1 0 0 1 366.2456 225.2051)" class="st1 st5 st6">Me gusta</text>
	<text transform="matrix(1 0 0 1 592.3477 225.2051)" class="st1 st5 st6">No estoy seguro</text>
	<text transform="matrix(1 0 0 1 950.1855 225.2051)" class="st1 st5 st6">No me gusta</text>
	<g>
		<path class="st1" d="M735.9,84.3c-2.9,0-5.2,2.4-5.2,5.2c0,2.9,2.4,5.2,5.2,5.2c2.9,0,5.2-2.4,5.2-5.2
			C741.2,86.7,738.8,84.3,735.9,84.3z"/>
		<path class="st1" d="M723.4,64.4c0.6,0.8,1.9,1,2.7,0.4c0.3-0.2,7.6-5.5,17.5-0.8c0.5,0.2,1,0.2,1.5,0.1c0.5-0.2,0.9-0.5,1.1-1
			c0.5-1,0-2.1-0.9-2.6c-3.6-1.7-6.9-2.3-9.9-2.3c-6.9,0-11.4,3.4-11.7,3.6C722.9,62.3,722.8,63.5,723.4,64.4z"/>
		<path class="st1" d="M754.9,159.4c28.4,0,51.6-23.1,51.6-51.6c0-26.6-19.9-48.6-46.3-51.3c-1.1-0.1-2,0.7-2.1,1.7
			c-0.1,0.5,0.1,1,0.4,1.4c0.3,0.4,0.8,0.6,1.3,0.7c24.4,2.5,42.9,22.9,42.9,47.5c0,26.3-21.4,47.7-47.7,47.7
			c-1.8,0-3.6-0.1-5.4-0.3l-0.8-0.1l-0.2-0.8c-0.1-0.6-0.4-1.2-0.7-1.7l-0.5-0.9l0.8-0.6c0.8-0.6,1.4-1.2,1.8-1.9
			c0.9-1.3,1.1-2.9,0.7-4.5c-0.1-0.3-0.2-0.7-0.3-1l-0.6-1.3l8.3-1.7c3.7-0.7,6.1-4.3,5.4-8c-0.7-3.7-4.1-6.1-7.8-5.6l-27.5,4.3
			l0.3-1.6c1.4-8.4,1.6-14.6,0.7-17.4c-0.9-2.7-3.3-4.4-6.2-4.5c-4.1-0.2-8.1,2.7-10.2,7.3c-0.7,1.6-1.3,3.1-1.8,4.4l-1.3,3.4
			l-0.9-3.5c-1-3.8-1.4-7.7-1.4-11.7c0-10.6,3.4-20.6,9.8-29c0.6-0.8,0.5-2-0.4-2.7c-0.3-0.3-0.7-0.4-1.2-0.4c-0.1,0-0.2,0-0.3,0
			c-0.5,0.1-1,0.3-1.3,0.7c-7,9.1-10.6,19.9-10.6,31.4c0,6.8,1.3,13.4,3.9,19.6l0.2,0.5l-0.2,0.5c-0.6,1.1-1.2,2.1-1.9,3.1
			c-3.2,4.6-8.6,8.8-8.7,8.8c-0.4,0.3-0.6,0.8-0.7,1.2c-0.1,0.4-1.3,9.9,1,18.3c2.4,8.3,5.5,11.9,5.9,12.3c0.3,0.4,0.8,0.6,1.3,0.6
			c3.6,0.2,10.8,0.5,18.1,0.5c13.2,0,17.8-1,19.5-1.9c4.2-2.2,5-5,5.1-6.5c0.1-0.9-0.1-1.8-0.4-2.7l-0.3-0.7l0.5-0.5
			c0.4-0.5,0.8-1,1.1-1.5l0.4-0.7l0.8,0.1C750.7,159.2,752.8,159.4,754.9,159.4z M746.7,147c-1,1.5-4,2.4-5,2.6
			c-1,0.2-1.7,1.1-1.6,2.1c0.1,1,0.9,1.7,1.9,1.7c0.8,0,2.4,0.4,2.6,1.7c0.4,2.5-2.2,4.3-2.5,4.5c-0.6,0.4-0.9,0.9-0.9,1.6
			c0,0.6,0.3,1.2,0.8,1.6c0.5,0.4,0.8,1,0.8,1.7c-0.1,1.2-1.2,2.4-3,3.3c-2,1.1-9.4,1.4-17.5,1.4c-5.7,0-11.7-0.2-16.6-0.4l-0.6,0
			l-0.3-0.5c-1-1.4-2.8-4.6-4.2-9.7c-1.7-5.9-1.3-12.8-1.1-15.4l0-0.5l0.4-0.3c1.6-1.3,5.7-4.9,8.4-8.8c2.4-3.4,3.6-6.6,5-10.3
			c0.7-1.8,1.6-4.1,2.7-6.7c1.6-3.6,4.4-5.1,6.5-5c1.9,0.1,2.5,1.2,2.8,1.9c1.2,3.6-0.7,15.4-1.5,19.7c-0.1,0.6,0.1,1.3,0.5,1.7
			c0.4,0.5,1.1,0.7,1.7,0.6l30.2-4.7c1.6-0.3,3.2,0.8,3.5,2.5c0.3,1.6-0.8,3.2-2.4,3.5l-15.1,3c-1,0.2-1.6,1.1-1.5,2.1
			c0.1,1,0.9,1.7,1.9,1.7c0.8,0,4,0.3,4.4,1.8C747.1,146.1,747,146.6,746.7,147z"/>
		<path class="st1" d="M764,79.3c0,0,2-0.8,5-0.8c3.2,0,7.7,0.9,12.1,4.7h0c0.8,0.7,2,0.6,2.7-0.2c0.3-0.4,0.5-0.9,0.5-1.4
			c0-0.5-0.3-1-0.7-1.3c-10.1-8.8-20.6-4.8-21-4.6c-0.5,0.2-0.8,0.6-1.1,1c-0.2,0.5-0.2,1,0,1.5C761.9,79.2,763.1,79.7,764,79.3z"/>
		<path class="st1" d="M757,115l-13.8-1.5c-0.1,0-0.1,0-0.2,0c-1,0-1.8,0.7-1.9,1.7v0c-0.1,0.5,0.1,1,0.4,1.4
			c0.3,0.4,0.8,0.7,1.3,0.7l13.8,1.5c0,0,0,0,0,0c1.2,0,2-0.7,2.1-1.7c0.1-0.5-0.1-1-0.4-1.4C757.9,115.3,757.5,115,757,115z"/>
		<path class="st1" d="M769.7,87.8c-2.9,0-5.2,2.4-5.2,5.2c0,2.9,2.4,5.2,5.2,5.2c2.9,0,5.2-2.4,5.2-5.2
			C775,90.1,772.6,87.8,769.7,87.8z"/>
	</g>
</g>
</svg>
