<?xml version="1.0" encoding="utf-8"?>
<!-- Generator: Adobe Illustrator 25.2.1, SVG Export Plug-In . SVG Version: 6.00 Build 0)  -->
<svg version="1.1" id="Layer_1" xmlns="http://www.w3.org/2000/svg" xmlns:xlink="http://www.w3.org/1999/xlink" x="0px" y="0px"
	 viewBox="0 0 1200 300" style="enable-background:new 0 0 1200 300;" xml:space="preserve">
<style type="text/css">
	.st0{fill:#3552FF;}
	.st1{fill:#FFFFFF;}
	.st2{fill:#FF4343;}
	.st3{fill:#8E6BFE;}
	.st4{fill:#FFFFFF;stroke:#FFFFFF;stroke-width:0.25;stroke-miterlimit:10;}
	.st5{fill:#FFFFFF;fill-opacity:0;}
	.st6{fill:#8E6BFE;fill-opacity:0;}
	.st7{fill-rule:evenodd;clip-rule:evenodd;fill:#FFFFFF;stroke:#8E6BFE;stroke-width:1.4;stroke-miterlimit:10;}
	.st8{fill:#FFFFFF;stroke:#FFFFFF;stroke-width:0.5;stroke-miterlimit:10;}
	.st9{fill:#FFFFFF;stroke:#8E6BFE;stroke-miterlimit:10;}
	.st10{fill:#FFFFFF;stroke:#8E6BFE;stroke-width:0.5;stroke-miterlimit:10;}
</style>
<g>
	<g>
		<path class="st3" d="M186.8,241.6c-53.2,0-96.5-39.8-96.5-96.2c0-56.4,43.3-96,96.5-96c53.5,0,96,39.6,96,96
			C282.8,201.7,240,241.6,186.8,241.6z M186.8,199.9c29.9,0,49.5-21.7,49.5-54.5c0-33.4-19.5-54.5-49.5-54.5
			c-30.5,0-49.7,21.1-49.7,54.5C137.1,178.2,156.3,199.9,186.8,199.9z"/>
		<path d="M337.3,240.1h-35V125.9h35v19c8-12.1,20.5-20.3,35.8-20.3v37.1h-9.6c-16.6,0-26.2,5.7-26.2,25.4V240.1z"/>
		<path d="M386.6,95.1c0-10.6,8.4-19,20.9-19c12.3,0,20.7,8.4,20.7,19c0,10.4-8.4,18.8-20.7,18.8C395,114,386.6,105.6,386.6,95.1z
			 M389.9,125.9h35v114.3h-35V125.9z"/>
		<path d="M501.1,241.8c-33.6,0-57.7-22.5-57.7-58.8c0-36.2,23.8-58.8,57.7-58.8c33.4,0,56.9,22.1,56.9,56.9c0,3.3-0.2,6.8-0.6,10.2
			h-79.3c1.2,14.9,10.4,21.9,21.7,21.9c9.8,0,15.4-4.9,18.2-11.1h37.3C549.8,224.6,529.6,241.8,501.1,241.8z M524.6,69.3v27.2
			l-49.4,20.7V93.1L524.6,69.3z M478.4,171.9h43.8c0-12.5-9.8-19.7-21.5-19.7C489.2,152.3,480.4,159.2,478.4,171.9z"/>
		<path d="M655.3,178.1c0-15.6-8.6-24.2-21.9-24.2c-13.3,0-21.9,8.6-21.9,24.2v62h-35V125.9h35V141c7-9.6,19.2-16.4,34.6-16.4
			c26.4,0,44,18,44,48.7v66.8h-34.8V178.1z"/>
		<path d="M720,154.9h-13.9v-29.1H720V98h35v27.9H778v29.1H755v45.9c0,6.8,2.9,9.6,10.6,9.6h12.5v29.7h-17.8
			c-23.8,0-40.3-10-40.3-39.7V154.9z"/>
		<path d="M841,124.2c17,0,29.1,7.8,35.2,17.8v-16.2h35v114.3h-35V224c-6.3,10-18.4,17.8-35.4,17.8c-27.9,0-50.2-22.9-50.2-59
			C790.6,146.8,813,124.2,841,124.2z M851.3,154.7c-13.1,0-25,9.8-25,28.1c0,18.2,11.9,28.5,25,28.5c13.3,0,25-10,25-28.3
			S864.6,154.7,851.3,154.7z"/>
		<path d="M934.6,153.7h90.1v29.1h-90.1V153.7z"/>
		<path d="M1008.6,96.4h111.2v28.1h-38.1v115.7h-35V124.4h-38.1V96.4z"/>
	</g>
	<g>
		<g>
			<path d="M205.2,98.1l-40.8,36.6c-1.7,1.5-0.4,4.4,1.9,4l23.9-3.9l12.1,21c1.2,2,4.2,1.3,4.3-1l2.5-54.8
				C209.1,97.9,206.7,96.7,205.2,98.1z M202.3,146.6l-8.9-15.5c-0.5-0.8-1.4-1.3-2.4-1.1l-17.7,2.9l30.8-27.7L202.3,146.6z"/>
		</g>
	</g>
	<polygon points="203.6,104.1 170.4,133.4 176.2,135.4 191.9,133.4 203.6,149.1 205.6,104.1 	"/>
	<path d="M178.1,250.7c-55.8,0-97.9-42-97.9-97.6c0-55.5,42.1-97.4,97.9-97.4c55.5,0,97.4,41.9,97.4,97.4
		C275.4,208.7,233.6,250.7,178.1,250.7z M178.1,58.4C123.8,58.4,83,99.1,83,153c0,54.1,40.9,94.9,95.1,94.9
		c53.9,0,94.6-40.8,94.6-94.9C272.7,99.1,232,58.4,178.1,58.4z M178.1,208.9c-31.1,0-51.1-22-51.1-55.9c0-34,20.1-55.9,51.1-55.9
		c30.9,0,50.9,22,50.9,55.9C228.9,187,209,208.9,178.1,208.9z M178.1,99.9c-29.8,0-48.3,20.4-48.3,53.1c0,32.3,19,53.1,48.3,53.1
		c29.2,0,48.1-20.9,48.1-53.1C226.1,120.7,207.3,99.9,178.1,99.9z"/>
</g>
</svg>
