<?xml version="1.0" encoding="utf-8"?>
<!-- Generator: Adobe Illustrator 25.2.1, SVG Export Plug-In . SVG Version: 6.00 Build 0)  -->
<svg version="1.1" id="Layer_1" xmlns="http://www.w3.org/2000/svg" xmlns:xlink="http://www.w3.org/1999/xlink" x="0px" y="0px"
	 viewBox="0 0 300 300" style="enable-background:new 0 0 300 300;" xml:space="preserve">
<style type="text/css">
	.st0{fill:#3552FF;}
	.st1{fill:#FFFFFF;}
	.st2{fill:#FF4343;}
	.st3{fill:#8E6BFE;}
	.st4{fill:#FFFFFF;stroke:#FFFFFF;stroke-width:0.25;stroke-miterlimit:10;}
	.st5{fill:#FFFFFF;fill-opacity:0;}
	.st6{fill:#8E6BFE;fill-opacity:0;}
	.st7{fill-rule:evenodd;clip-rule:evenodd;fill:#FFFFFF;stroke:#8E6BFE;stroke-width:1.4;stroke-miterlimit:10;}
	.st8{fill:#FFFFFF;stroke:#FFFFFF;stroke-width:0.5;stroke-miterlimit:10;}
	.st9{fill:#FFFFFF;stroke:#8E6BFE;stroke-miterlimit:10;}
	.st10{fill:#FFFFFF;stroke:#8E6BFE;stroke-width:0.5;stroke-miterlimit:10;}
</style>
<g>
	<circle class="st3" cx="150" cy="150" r="123.2"/>
	<g>
		<path class="st7" d="M174.8,128.1c-3.5,0-7.1,1.3-10.1,4L138,159.2l-8.3-8.5c-2.5-2.6-5.8-4.1-9.3-4.1c-1.8,0-3.7,0.4-5.6,1.2
			c-2.4,1.1-4.2,2.5-4.8,3.9c-5.2,5.3-5.2,14.1,0,19.8l18.4,19.1c2.6,2.6,6.1,4,9.6,4c3.6,0,7.2-1.3,10.1-4l37.1-38.1
			c3.8-3.9,5.2-9.9,3.1-14.8c-1.4-3.2-3.1-4.9-4.2-5.6C181.7,129.4,178.3,128.1,174.8,128.1z M174.6,136.7c1.2,0,2.4,0.4,3.3,1.3
			c0.7,0.7,1,1.4,1.7,2.1c0.3,2.5,0.3,4.2-1,5.3l-37.1,38.1c-0.9,0.9-2.1,1.3-3.3,1.3s-2.4-0.4-3.3-1.3l-18.7-19.1
			c-1.7-1.8-1.7-4.9,0-6.7l1-0.7c0.9-0.9,2-1.3,3.1-1.3c1.1,0,2.3,0.4,3.1,1.3l11.4,11.3c0.9,0.9,2.1,1.3,3.3,1.3s2.4-0.4,3.3-1.3
			l29.8-30.4C172.1,137.2,173.4,136.7,174.6,136.7z"/>
		<path class="st7" d="M148.7,71.1c-1.8,0-3.6,0.4-5.4,1.1c-3.5,1.4-6.7,4.2-7.4,8.5h-14.8c-5.6,0-10.9,3.9-13.1,9.2H90.4
			c-2.8,0-4.6,2.1-4.6,4.9v114c0,2.8,2.5,5,4.6,5h114.4c2.5,0,4.6-2.1,4.6-5v-114c-0.3-2.8-2.5-4.9-5.3-4.9h-14.5
			c-1.8-5.3-7.1-9.2-13.1-9.2h-14.8C159.8,74.7,154.4,71.1,148.7,71.1z M199.8,99v105.2H94.6V99H107v4.6c0,2.5,2.5,4.6,4.9,4.6H186
			c2.8,0,4.6-2.1,4.6-4.6V99H199.8z M148.6,79.9c2.5,0,4.2,2.5,4.9,4.9c0,2.8,2.1,4.6,4.6,4.6h18.7c2.5,0,4.2,2.1,4.9,4.6V99h-65
			v-4.2h-0.4c0-2.8,2.1-4.6,4.2-4.9h18.7c2.5,0,4.2-2.1,4.2-4.9C143.7,82.4,145.8,80.6,148.6,79.9z"/>
	</g>
</g>
</svg>
