<?xml version="1.0" encoding="utf-8"?>
<!-- Generator: Adobe Illustrator 25.2.1, SVG Export Plug-In . SVG Version: 6.00 Build 0)  -->
<svg version="1.1" id="Layer_1" xmlns="http://www.w3.org/2000/svg" xmlns:xlink="http://www.w3.org/1999/xlink" x="0px" y="0px"
	 viewBox="0 0 300 300" style="enable-background:new 0 0 300 300;" xml:space="preserve">
<style type="text/css">
	.st0{fill:#3552FF;}
	.st1{fill:#FFFFFF;}
	.st2{fill:#FF4343;}
	.st3{fill:#8E6BFE;}
	.st4{fill:#FFFFFF;stroke:#FFFFFF;stroke-width:0.25;stroke-miterlimit:10;}
	.st5{fill:#FFFFFF;fill-opacity:0;}
	.st6{fill:#8E6BFE;fill-opacity:0;}
	.st7{fill-rule:evenodd;clip-rule:evenodd;fill:#FFFFFF;stroke:#8E6BFE;stroke-width:1.4;stroke-miterlimit:10;}
	.st8{fill:#FFFFFF;stroke:#FFFFFF;stroke-width:0.5;stroke-miterlimit:10;}
	.st9{fill:#FFFFFF;stroke:#8E6BFE;stroke-miterlimit:10;}
	.st10{fill:#FFFFFF;stroke:#8E6BFE;stroke-width:0.5;stroke-miterlimit:10;}
</style>
<g>
	<g>
		<circle class="st3" cx="150" cy="150" r="123.2"/>
	</g>
	<path class="st7" d="M146.1,66.7c-9.8,0-18,7.8-18.6,17.8c-0.5,10,6.7,18.7,16.5,19.8h-18.8c-12.7,0-23,11.3-23,25.2V158
		c0,8.5,6.9,14.9,14.6,14.9c1.6,0,3.3-0.3,4.9-0.9V221c0,8.2,6.5,14.9,14.6,14.9c3.6,0,7.1-1.3,9.7-3.8c2.7,2.5,6.2,3.8,9.8,3.8
		c2,0,4-0.4,5.9-1.3c5.3-2.4,8.7-7.7,8.7-13.6v-48.9c1.6,0.6,3.3,0.9,4.9,0.9c7.7,0,14.6-6.4,14.6-14.9v-28.5
		c0-13.9-10.3-25.2-23.1-25.2h-18.8c9.8-1.1,17-9.8,16.5-19.8C164.1,74.5,155.9,66.7,146.1,66.7z M166.9,114.3
		c7.3,0,13.3,6.8,13.3,15.3V158c0,2.7-2.2,5-4.9,5c-2.7,0-4.9-2.2-4.9-5v-26.6c0-2.7-2.2-4.9-4.9-4.9c-2.7,0-4.9,2.2-4.9,4.9V221
		c0,2.7-2.2,4.9-4.9,4.9c-2.7,0-4.9-2.2-4.9-4.9v-50.4c0-2.7-2.2-4.9-4.9-4.9s-4.9,2.2-4.9,4.9V221c0,2.7-2.2,4.9-4.9,4.9
		s-4.9-2.2-4.9-4.9v-89.6c0-2.7-2.2-4.9-4.9-4.9s-4.9,2.2-4.9,4.9V158c0,2.7-2.2,5-4.9,5c-2.7,0-4.9-2.2-4.9-5v-28.5
		c0-8.4,5.9-15.3,13.3-15.3H166.9z M146.1,76.5c2.2,0,4.4,0.8,6.2,2.7c2.5,2.6,3.3,6.4,1.9,9.8c-1.4,3.4-4.6,5.5-8.2,5.5
		c-4.9,0-8.8-4-8.8-9C137.2,80.1,141.6,76.5,146.1,76.5z"/>
</g>
</svg>
