<?xml version="1.0" encoding="utf-8"?>
<!-- Generator: Adobe Illustrator 25.2.1, SVG Export Plug-In . SVG Version: 6.00 Build 0)  -->
<svg version="1.1" id="Layer_1" xmlns="http://www.w3.org/2000/svg" xmlns:xlink="http://www.w3.org/1999/xlink" x="0px" y="0px"
	 viewBox="0 0 300 300" style="enable-background:new 0 0 300 300;" xml:space="preserve">
<style type="text/css">
	.st0{fill:#3552FF;}
	.st1{fill:#FFFFFF;}
	.st2{fill:#FF4343;}
	.st3{fill:#8E6BFE;}
	.st4{fill:#FFFFFF;stroke:#FFFFFF;stroke-width:0.25;stroke-miterlimit:10;}
	.st5{fill:#FFFFFF;fill-opacity:0;}
	.st6{fill:#8E6BFE;fill-opacity:0;}
	.st7{fill-rule:evenodd;clip-rule:evenodd;fill:#FFFFFF;stroke:#8E6BFE;stroke-width:1.4;stroke-miterlimit:10;}
	.st8{fill:#FFFFFF;stroke:#FFFFFF;stroke-width:0.5;stroke-miterlimit:10;}
	.st9{fill:#FFFFFF;stroke:#8E6BFE;stroke-miterlimit:10;}
	.st10{fill:#FFFFFF;stroke:#8E6BFE;stroke-width:0.5;stroke-miterlimit:10;}
</style>
<g>
	<g>
		<path class="st0" d="M211,36h57c6.6,0,12,5.4,12,12v109c0,6.6-5.4,12-12,12h-57c-6.6,0-12-5.4-12-12V48C199,41.4,204.4,36,211,36z
			"/>
		<polygon class="st0" points="111,175 104,211 106,244 115,257 123,266 132,267 141,246 160,196 177,167 182,147 180,47 170,40 
			132,33 48,36 39,49 43,64 35,76 34,90 36,98 29,109 27,121 29,134 21,141 19,159 28,166 37,168 108,169 		"/>
	</g>
	<g>
		<g>
			<g>
				<g>
					<g>
						<path class="st1" d="M57.3,30c0.1,0,0.2,0,0.3,0l98.4,1.2c5.7,0.1,11.3,2.2,16.1,6.2c1.3,1.1,3,1.9,5.2,2.4
							c5.2,1.3,8.8,5.9,8.8,11.1v105.7c0,2-0.5,4-1.5,5.7l-25.8,45.2c-5.9,10.3-10,21.5-12.1,33.2l-2.4,13.2
							c-0.2,1.7-1.9,12.6-12.3,15.4c-1.6,0.4-3.3,0.6-5.1,0.6c-10-0.1-18-12-23.8-35.4c-1.9-7.6-2.2-15.5-0.8-23.2l6.8-38.8
							l-72.3-0.9c-11.7-0.1-21.4-9.5-21.6-20.8c-0.1-5.8,2.1-11.2,6.1-15.3c1.8-1.8,3.9-3.3,6.1-4.3c-3.4-3.8-5.3-8.9-5.2-14.2
							c0.1-8.4,5.1-15.6,12.3-18.9c-3.4-3.8-5.3-8.9-5.2-14.2c0.1-8.4,5.1-15.6,12.3-18.9c-3.4-3.8-5.3-8.9-5.2-14.2
							c0.1-5.6,2.3-10.9,6.4-14.9C46.5,32.1,51.8,30,57.3,30z M127,262.3c1,0,2-0.1,2.8-0.4c5.9-1.6,6.7-8.8,6.7-8.9
							c0-0.1,0-0.2,0-0.3l2.4-13.3c2.3-12.6,6.7-24.5,13-35.6l25.8-45.2c0.3-0.6,0.5-1.2,0.5-1.9V51c0-1.7-1.2-3.2-3-3.6
							c-3.2-0.8-6-2.2-8.2-4c-3.5-2.9-7.4-4.4-11.3-4.5l-98.4-1.2c-3.7-0.1-7,1.3-9.5,3.8c-2.6,2.5-4,5.9-4,9.4
							C43.8,56.4,47,61.3,52,63.4c1.7,0.7,2.6,2.5,2.2,4.3c-0.4,1.8-1.9,3.1-3.8,3.1c-0.1,0-0.1,0-0.2,0c-7.3,0-13.3,5.9-13.4,13.3
							c-0.1,5.4,3.1,10.3,8.1,12.5c1.7,0.7,2.6,2.5,2.2,4.3c-0.4,1.8-1.9,3.1-3.8,3.1c-7.3-0.1-13.5,5.9-13.6,13.3
							c-0.1,5.4,3.1,10.3,8.1,12.5c1.7,0.7,2.6,2.5,2.2,4.3c-0.4,1.8-2,3.1-3.8,3.1c-0.1,0-0.1,0-0.2,0c-3.6,0-7,1.4-9.5,4
							c-2.6,2.6-4,6-3.9,9.7c0.1,7.2,6.4,13.1,14,13.2l76.5,0.9c1.1,0,2.2,0.5,2.9,1.4l0.2,0.3c0.7,0.9,1,2,0.8,3.1l-7.5,42.9
							c-1.2,6.7-0.9,13.4,0.7,20c4.5,18.2,10.8,29.5,16.4,29.6C126.9,262.3,127,262.3,127,262.3z"/>
						<path class="st1" d="M127,270.8c-0.1,0-0.1,0-0.2,0c-10.3-0.1-18.6-12.2-24.5-36c-1.9-7.8-2.2-15.7-0.8-23.5l6.6-37.9
							l-71.4-0.9c-12.1-0.2-22.1-9.8-22.3-21.5c-0.1-6,2.2-11.6,6.4-15.8c1.6-1.6,3.5-3,5.5-4c-3.2-3.9-4.9-8.9-4.8-14
							c0.1-8.1,4.7-15.5,11.9-19.2c-3.2-4-4.9-8.9-4.8-14c0.1-8.1,4.7-15.5,11.9-19.2c-3.2-3.9-4.9-8.9-4.8-14
							c0.1-5.8,2.4-11.3,6.6-15.4c4.1-4,9.5-6.2,15.3-6.2h0.3l98.4,1.2c5.9,0.1,11.6,2.3,16.6,6.4c1.2,1,2.9,1.8,4.9,2.3
							c5.5,1.4,9.3,6.3,9.3,11.8v105.7c0,2.1-0.6,4.2-1.6,6.1L159.4,208c-5.8,10.2-9.9,21.3-12,32.9l-2.4,13.2
							c-0.3,2.1-2.1,13.1-12.9,16C130.5,270.5,128.8,270.8,127,270.8z M57.3,30.7c-5.4,0-10.4,2.1-14.2,5.8
							c-3.9,3.8-6.1,8.9-6.2,14.4c-0.1,5.1,1.7,9.9,5.1,13.7l0.7,0.7l-0.9,0.4C34.6,69,30,76.2,29.9,84c-0.1,5,1.7,9.9,5.1,13.7
							l0.7,0.7l-0.9,0.4c-7.1,3.3-11.8,10.5-11.9,18.3c-0.1,5.1,1.7,9.9,5,13.7l0.7,0.7l-0.9,0.4c-2.2,1-4.2,2.4-5.9,4.2
							c-3.9,4-6,9.2-5.9,14.8c0.2,10.9,9.6,19.9,20.9,20l73.2,0.9l-6.9,39.6c-1.3,7.7-1.1,15.4,0.8,22.9c5.7,23,13.5,34.7,23.1,34.9
							c0.1,0,0.1,0,0.2,0c1.7,0,3.3-0.2,4.7-0.6c9.8-2.7,11.5-12.8,11.8-14.8l2.4-13.3c2.1-11.8,6.2-23,12.2-33.4l25.8-45.2
							c0.9-1.6,1.4-3.5,1.4-5.3V51c0-4.9-3.4-9.2-8.2-10.4c-2.2-0.6-4.1-1.4-5.5-2.6c-4.7-3.9-10.1-6-15.7-6.1L57.3,30.7z M127,263
							h-0.2c-6-0.1-12.4-11.3-17.1-30.1c-1.7-6.7-1.9-13.5-0.7-20.3l7.5-42.9c0.2-0.9-0.1-1.8-0.7-2.5l-0.2-0.3
							c-0.6-0.7-1.4-1.1-2.4-1.1l-76.5-0.9c-8-0.1-14.6-6.3-14.7-13.9c-0.1-3.9,1.4-7.5,4.1-10.2c2.7-2.7,6.2-4.2,10-4.2h0.2
							c1.5,0,2.7-1,3-2.5c0.3-1.4-0.5-2.9-1.8-3.5c-5.3-2.3-8.6-7.5-8.5-13.2c0-3.8,1.6-7.3,4.3-10c2.7-2.6,6.1-4,9.8-4
							c0.1,0,0.2,0,0.3,0c1.5,0,2.7-1,3-2.5c0.3-1.4-0.5-2.9-1.8-3.5c-5.3-2.3-8.6-7.4-8.5-13.2c0.1-7.7,6.4-14,14.2-14
							c1.7,0,2.9-1,3.3-2.5c0.3-1.4-0.5-2.9-1.8-3.5c-5.3-2.3-8.6-7.4-8.5-13.2c0-3.8,1.6-7.3,4.3-10c2.7-2.6,6.1-4,9.7-4
							c0.1,0,0.2,0,0.3,0l98.4,1.2c4.1,0,8.2,1.7,11.8,4.6c2.1,1.7,4.7,3,7.9,3.8c2.1,0.5,3.5,2.3,3.5,4.4v105.7
							c0,0.8-0.2,1.5-0.6,2.2l-25.8,45.2c-6.3,11-10.6,22.9-12.9,35.4l-2.4,13.3c0,0.1,0,0.2,0,0.2c-0.1,0.9-1.1,7.9-7.2,9.6
							C129.1,262.9,128.1,263,127,263z M36.1,137.9c-3.4,0-6.6,1.3-9,3.7c-2.4,2.4-3.7,5.7-3.7,9.2c0.1,6.8,6.1,12.4,13.3,12.4
							l76.5,0.9c1.4,0,2.6,0.6,3.5,1.7l0.2,0.3c0.9,1,1.2,2.4,1,3.7l-7.5,42.9c-1.1,6.6-0.9,13.2,0.7,19.7
							c4.4,17.6,10.5,28.9,15.7,29l0.2,0.7v-0.7c0.9,0,1.8-0.1,2.7-0.3c5.2-1.4,6.1-7.5,6.2-8.2c0-0.1,0-0.2,0-0.4l2.4-13.4
							c2.3-12.6,6.7-24.7,13.1-35.9l25.8-45.2c0.3-0.5,0.4-1,0.4-1.5V51c0-1.4-1-2.6-2.4-2.9c-3.4-0.9-6.2-2.3-8.5-4.1
							c-3.3-2.8-7.1-4.2-10.8-4.3l-98.4-1.2c-0.1,0-0.2,0-0.3,0c-3.3,0-6.3,1.2-8.7,3.6c-2.4,2.4-3.8,5.5-3.8,8.9
							c-0.1,5.1,2.9,9.8,7.7,11.8c2,0.9,3.1,3,2.7,5.2c-0.5,2.1-2.3,3.6-4.5,3.6c-7.1,0-12.8,5.6-12.8,12.5
							c-0.1,5.1,2.9,9.8,7.7,11.8c2,0.9,3.1,3.1,2.7,5.2c-0.5,2.1-2.3,3.6-4.5,3.6c-0.1,0-0.2,0-0.3,0c-3.3,0-6.4,1.3-8.8,3.6
							c-2.5,2.4-3.8,5.6-3.9,8.9c-0.1,5.1,2.9,9.8,7.7,11.8c2,0.9,3.1,3,2.7,5.2c-0.5,2.1-2.3,3.6-4.5,3.6H36.1z"/>
					</g>
				</g>
				<g>
					<g>
						<path class="st1" d="M273.4,33.1c3,0,5.8,1.1,8,3.2c2.2,2.1,3.4,4.9,3.4,7.9l0.2,117.7c0,6.2-5.1,11.2-11.3,11.2l-64.7,0.1
							c0,0,0,0,0,0c-3,0-5.8-1.1-8-3.2c-2.2-2.1-3.4-4.9-3.4-7.9l-0.2-117.7c0-6.2,5.1-11.2,11.3-11.2L273.4,33.1
							C273.4,33.1,273.4,33.1,273.4,33.1z M209,165.4l64.7-0.1c2,0,3.6-1.5,3.6-3.4L277,44.2c0-0.9-0.4-1.7-1-2.4
							c-0.7-0.7-1.6-1-2.6-1c0,0,0,0,0,0l-64.7,0.1c-2,0-3.6,1.5-3.6,3.4l0.2,117.7c0,0.9,0.4,1.7,1,2.4
							C207.1,165.1,208,165.4,209,165.4C209,165.4,209,165.4,209,165.4L209,165.4z M209,169.3L209,169.3L209,169.3z"/>
						<path class="st1" d="M209,173.9c-3.2,0-6.2-1.2-8.5-3.4c-2.3-2.2-3.6-5.2-3.6-8.4l-0.2-117.7c0-6.5,5.4-11.9,12-11.9l64.7-0.1
							c3.2,0,6.2,1.2,8.5,3.4c2.3,2.3,3.6,5.3,3.6,8.4l0.2,117.7c0,3.2-1.2,6.2-3.5,8.4c-2.3,2.3-5.3,3.5-8.5,3.5L209,173.9z
							 M273.4,33.8l-64.7,0.1c-5.8,0-10.6,4.7-10.6,10.4l0.2,117.7c0,2.8,1.1,5.4,3.1,7.4c2,1.9,4.6,3,7.4,3l64.7-0.1
							c2.8,0,5.5-1.1,7.5-3.1c2-2,3.1-4.6,3.1-7.4L284,44.2c0-2.8-1.1-5.4-3.1-7.4C278.9,34.9,276.2,33.8,273.4,33.8L273.4,33.8z
							 M209,170L209,170l0-1.5L209,170z M209,166.2L209,166.2c-1.2,0-2.3-0.4-3.1-1.2c-0.8-0.8-1.3-1.8-1.3-2.9l-0.2-117.7
							c0-2.3,1.9-4.2,4.3-4.2l64.7-0.1c1.2,0,2.3,0.4,3.1,1.2c0.8,0.8,1.3,1.8,1.3,2.9l0.2,117.7c0,2.3-1.9,4.2-4.3,4.2L209,166.2z
							 M273.4,41.5l-64.7,0.1c-1.6,0-2.9,1.2-2.9,2.7l0.2,117.7c0,0.7,0.3,1.4,0.8,1.9c0.5,0.5,1.3,0.8,2.1,0.8l0,0.7v-0.7l64.7-0.1
							c1.6,0,2.8-1.2,2.8-2.7l-0.2-117.7c0-0.7-0.3-1.4-0.8-1.9C274.9,41.8,274.2,41.5,273.4,41.5z"/>
					</g>
				</g>
			</g>
			<g>
				<g>
					<path class="st1" d="M36.4,129.4h34c2.1,0,3.9,1.7,3.9,3.9c0,2.1-1.7,3.9-3.9,3.9h-34c-2.1,0-3.9-1.7-3.9-3.9
						C32.5,131.2,34.2,129.4,36.4,129.4z"/>
					<path class="st1" d="M70.4,137.9h-34c-2.5,0-4.6-2.1-4.6-4.6s2.1-4.6,4.6-4.6h34c2.5,0,4.6,2.1,4.6,4.6S72.9,137.9,70.4,137.9z
						 M36.4,130.2c-1.7,0-3.1,1.4-3.1,3.1c0,1.7,1.4,3.1,3.1,3.1h34c1.7,0,3.1-1.4,3.1-3.1c0-1.7-1.4-3.1-3.1-3.1H36.4z"/>
				</g>
			</g>
			<g>
				<g>
					<path class="st1" d="M43.4,96.3h34c2.1,0,3.9,1.7,3.9,3.9s-1.7,3.9-3.9,3.9h-34c-2.1,0-3.9-1.7-3.9-3.9S41.3,96.3,43.4,96.3z"
						/>
					<path class="st1" d="M77.4,104.8h-34c-2.5,0-4.6-2.1-4.6-4.6s2.1-4.6,4.6-4.6h34c2.5,0,4.6,2.1,4.6,4.6S79.9,104.8,77.4,104.8z
						 M43.4,97c-1.7,0-3.1,1.4-3.1,3.1c0,1.7,1.4,3.1,3.1,3.1h34c1.7,0,3.1-1.4,3.1-3.1c0-1.7-1.4-3.1-3.1-3.1H43.4z"/>
				</g>
			</g>
			<g>
				<g>
					<path class="st1" d="M50.5,63.1h34c2.1,0,3.9,1.7,3.9,3.9c0,2.1-1.7,3.9-3.9,3.9h-34c-2.1,0-3.9-1.7-3.9-3.9
						C46.6,64.9,48.3,63.1,50.5,63.1z"/>
					<path class="st1" d="M84.5,71.6h-34c-2.5,0-4.6-2.1-4.6-4.6s2.1-4.6,4.6-4.6h34c2.5,0,4.6,2.1,4.6,4.6S87,71.6,84.5,71.6z
						 M50.5,63.9c-1.7,0-3.1,1.4-3.1,3.1s1.4,3.1,3.1,3.1h34c1.7,0,3.1-1.4,3.1-3.1s-1.4-3.1-3.1-3.1H50.5z"/>
				</g>
			</g>
		</g>
	</g>
</g>
</svg>
