<?xml version="1.0" encoding="utf-8"?>
<!-- Generator: Adobe Illustrator 25.2.1, SVG Export Plug-In . SVG Version: 6.00 Build 0)  -->
<svg version="1.1" id="Layer_1" xmlns="http://www.w3.org/2000/svg" xmlns:xlink="http://www.w3.org/1999/xlink" x="0px" y="0px"
	 viewBox="0 0 300 300" style="enable-background:new 0 0 300 300;" xml:space="preserve">
<style type="text/css">
	.st0{fill:#3552FF;}
	.st1{fill:#FFFFFF;}
	.st2{fill:#FF4343;}
	.st3{fill:#8E6BFE;}
	.st4{fill:#FFFFFF;stroke:#FFFFFF;stroke-width:0.25;stroke-miterlimit:10;}
	.st5{fill:#FFFFFF;fill-opacity:0;}
	.st6{fill:#8E6BFE;fill-opacity:0;}
	.st7{fill-rule:evenodd;clip-rule:evenodd;fill:#FFFFFF;stroke:#8E6BFE;stroke-width:1.4;stroke-miterlimit:10;}
	.st8{fill:#FFFFFF;stroke:#FFFFFF;stroke-width:0.5;stroke-miterlimit:10;}
	.st9{fill:#FFFFFF;stroke:#8E6BFE;stroke-miterlimit:10;}
	.st10{fill:#FFFFFF;stroke:#8E6BFE;stroke-width:0.5;stroke-miterlimit:10;}
</style>
<g>
	<g>
		<g>
			<g>
				<g>
					<path class="st0" d="M242.7,270c-0.1,0-0.2,0-0.3,0l-98.4-1.2c-5.7-0.1-11.3-2.2-16.1-6.2c-1.3-1.1-3-1.9-5.2-2.4
						c-5.2-1.3-8.8-5.9-8.8-11.1V143.3c0-2,0.5-4,1.5-5.7l25.8-45.2c5.9-10.3,10-21.5,12.1-33.2l2.4-13.2
						c0.2-1.7,1.9-12.6,12.3-15.4c1.6-0.4,3.3-0.6,5.1-0.6c10,0.1,18,12,23.8,35.4c1.9,7.6,2.2,15.5,0.8,23.2l-6.8,38.8l72.3,0.9
						c11.7,0.1,21.4,9.5,21.6,20.8c0.1,5.8-2.1,11.2-6.1,15.3c-1.8,1.8-3.9,3.3-6.1,4.3c3.4,3.8,5.3,8.9,5.2,14.2
						c-0.1,8.4-5.1,15.6-12.3,18.9c3.4,3.8,5.3,8.9,5.2,14.2c-0.1,8.4-5.1,15.6-12.3,18.9c3.4,3.8,5.3,8.9,5.2,14.2
						c-0.1,5.6-2.3,10.9-6.4,14.9C253.5,267.9,248.3,270,242.7,270z M173,37.7c-1,0-2,0.1-2.8,0.4c-5.9,1.6-6.7,8.8-6.7,8.9
						c0,0.1,0,0.2,0,0.3L161,60.6c-2.3,12.6-6.7,24.5-13,35.6l-25.8,45.2c-0.3,0.6-0.5,1.2-0.5,1.9V249c0,1.7,1.2,3.2,3,3.6
						c3.2,0.8,6,2.2,8.2,4c3.5,2.9,7.4,4.4,11.3,4.5l98.4,1.2c3.7,0.1,7-1.3,9.5-3.8c2.6-2.5,4-5.9,4-9.4c0.1-5.4-3.1-10.3-8.1-12.5
						c-1.7-0.7-2.6-2.5-2.2-4.3c0.4-1.8,1.9-3.1,3.8-3.1c0.1,0,0.1,0,0.2,0c7.3,0,13.3-5.9,13.4-13.3c0.1-5.4-3.1-10.3-8.1-12.5
						c-1.7-0.7-2.6-2.5-2.2-4.3c0.4-1.8,1.9-3.1,3.8-3.1c7.3,0.1,13.5-5.9,13.6-13.3c0.1-5.4-3.1-10.3-8.1-12.5
						c-1.7-0.7-2.6-2.5-2.2-4.3c0.4-1.8,2-3.1,3.8-3.1c0.1,0,0.1,0,0.2,0c3.6,0,7-1.4,9.5-4c2.6-2.6,4-6,3.9-9.7
						c-0.1-7.2-6.4-13.1-14-13.2l-76.5-0.9c-1.1,0-2.2-0.5-2.9-1.4l-0.2-0.3c-0.7-0.9-1-2-0.8-3.1l7.5-42.9c1.2-6.7,0.9-13.4-0.7-20
						c-4.5-18.2-10.8-29.5-16.4-29.6C173.1,37.7,173,37.7,173,37.7z"/>
					<path class="st0" d="M242.7,270.8l-0.2,0l-98.5-1.2c-5.9-0.1-11.6-2.3-16.6-6.4c-1.2-1-2.9-1.8-4.9-2.3
						c-5.5-1.4-9.3-6.3-9.3-11.8V143.3c0-2.1,0.6-4.2,1.6-6L140.7,92c5.8-10.2,9.9-21.3,12-32.9l2.4-13.2c0.2-1.3,1.9-13,12.9-16
						c1.6-0.4,3.4-0.7,5.3-0.6c10.3,0.1,18.6,12.2,24.5,36c1.9,7.7,2.2,15.7,0.8,23.5l-6.6,37.9l71.4,0.9
						c12.1,0.2,22.1,9.8,22.3,21.5c0.1,6-2.1,11.6-6.4,15.8c-1.6,1.6-3.5,3-5.5,4c3.2,3.9,4.9,8.9,4.8,14
						c-0.1,8.1-4.7,15.5-11.9,19.2c3.2,3.9,4.9,8.9,4.8,14c-0.1,8.1-4.7,15.5-11.9,19.2c3.2,3.9,4.9,8.9,4.8,14
						c-0.1,5.8-2.4,11.3-6.6,15.4C253.9,268.6,248.4,270.8,242.7,270.8z M173.1,30.7c-1.7,0-3.3,0.2-4.8,0.6
						c-10.1,2.7-11.6,13.5-11.8,14.8l-2.4,13.3c-2.1,11.8-6.2,23-12.2,33.4L116.1,138c-0.9,1.6-1.4,3.4-1.4,5.3V249
						c0,4.9,3.4,9.2,8.2,10.4c2.2,0.6,4.1,1.4,5.5,2.6c4.7,3.9,10.1,6,15.7,6.1l98.4,1.2l0.3,0.7v-0.7c5.3,0,10.4-2.1,14.2-5.8
						c3.9-3.8,6.1-8.9,6.2-14.3c0.1-5.1-1.7-9.9-5.1-13.7l-0.7-0.7l0.9-0.4c7.1-3.3,11.8-10.5,11.9-18.3c0.1-5.1-1.7-9.9-5.1-13.7
						l-0.7-0.7l0.9-0.4c7.1-3.3,11.8-10.5,11.9-18.3c0.1-5-1.7-9.9-5-13.7l-0.7-0.7l0.9-0.4c2.2-1,4.2-2.4,5.9-4.2
						c3.9-4,6-9.2,5.9-14.8c-0.2-10.9-9.6-19.9-20.9-20l-73.2-0.9l6.9-39.6c1.3-7.7,1.1-15.4-0.8-22.9c-5.7-23-13.5-34.7-23.1-34.9
						C173.2,30.7,173.1,30.7,173.1,30.7z M242.8,263c-0.1,0-0.2,0-0.3,0l-98.4-1.2c-4.1,0-8.2-1.7-11.8-4.6c-2.1-1.7-4.8-3-7.9-3.8
						c-2.1-0.5-3.5-2.3-3.5-4.4V143.3c0-0.8,0.2-1.5,0.6-2.2l25.8-45.2c6.3-11,10.6-22.9,12.9-35.4l2.4-13.3c0-0.1,0-0.2,0-0.3
						c0.1-0.8,1.1-7.9,7.2-9.5c0.9-0.2,1.9-0.4,3-0.4h0.2c6,0.1,12.4,11.3,17.1,30.1c1.7,6.7,1.9,13.5,0.7,20.3l-7.5,42.9
						c-0.2,0.9,0.1,1.8,0.7,2.5l0.2,0.3c0.6,0.7,1.4,1.1,2.4,1.1l76.5,0.9c8,0.1,14.6,6.3,14.7,13.9c0.1,3.9-1.4,7.5-4.1,10.2
						c-2.7,2.7-6.2,4.2-10,4.2h-0.2c-1.5,0-2.7,1-3,2.5c-0.3,1.4,0.5,2.9,1.8,3.5c5.3,2.3,8.6,7.5,8.5,13.2c0,3.8-1.6,7.3-4.3,10
						c-2.7,2.6-6.1,4-9.8,4c-0.1,0-0.2,0-0.3,0c-1.5,0-2.7,1-3.1,2.5c-0.3,1.4,0.5,2.9,1.8,3.5c5.3,2.3,8.6,7.4,8.5,13.2
						c-0.1,7.7-6.4,14-14.2,14c-1.7,0-3,1-3.3,2.5c-0.3,1.4,0.5,2.9,1.8,3.5c5.3,2.3,8.6,7.4,8.5,13.2c0,3.8-1.6,7.3-4.3,10
						C249.9,261.7,246.5,263,242.8,263z M173,37.7v0.7c-1,0-1.9,0.1-2.6,0.3c-5.2,1.4-6.1,7.5-6.2,8.2c0,0.1,0,0.3-0.1,0.4
						l-2.4,13.3c-2.3,12.6-6.7,24.7-13.1,35.8l-25.8,45.2c-0.3,0.5-0.4,1-0.4,1.5V249c0,1.4,1,2.6,2.4,2.9c3.3,0.9,6.2,2.2,8.5,4.1
						c3.3,2.8,7.1,4.3,10.8,4.3l98.4,1.2c0.1,0,0.2,0,0.3,0c3.3,0,6.3-1.2,8.7-3.6c2.4-2.4,3.8-5.5,3.8-8.9
						c0.1-5.1-2.9-9.8-7.7-11.8c-2-0.9-3.1-3-2.7-5.2c0.5-2.1,2.3-3.6,4.5-3.6c7.1,0,12.8-5.6,12.8-12.5c0.1-5.1-2.9-9.8-7.7-11.8
						c-2-0.9-3.1-3-2.7-5.2c0.5-2.1,2.3-3.6,4.5-3.6c0.1,0,0.2,0,0.2,0c3.3,0,6.4-1.3,8.8-3.6c2.5-2.4,3.8-5.6,3.9-8.9
						c0.1-5.1-2.9-9.8-7.7-11.8c-2-0.9-3.1-3-2.7-5.2c0.4-2.1,2.3-3.6,4.5-3.6h0.2c3.4,0,6.6-1.3,9-3.7c2.4-2.4,3.7-5.7,3.7-9.2
						c-0.1-6.8-6.1-12.4-13.3-12.4l-76.5-0.9c-1.4,0-2.6-0.6-3.5-1.7l-0.2-0.3c-0.9-1-1.2-2.4-1-3.7l7.5-42.9
						c1.1-6.6,0.9-13.2-0.7-19.7c-4.4-17.6-10.5-28.9-15.7-29L173,37.7z"/>
				</g>
			</g>
			<g>
				<g>
					<path class="st0" d="M26.6,267c-3,0-5.8-1.1-8-3.2c-2.2-2.1-3.4-4.9-3.4-7.9L15,138.1c0-6.2,5.1-11.2,11.3-11.2l64.7-0.1
						c0,0,0,0,0,0c3,0,5.8,1.1,8,3.2c2.2,2.1,3.4,4.9,3.4,7.9l0.2,117.7c0,6.2-5.1,11.2-11.3,11.2L26.6,267
						C26.6,267,26.6,267,26.6,267z M91,134.6l-64.7,0.1c-2,0-3.6,1.5-3.6,3.4L23,255.8c0,0.9,0.4,1.7,1,2.4c0.7,0.7,1.6,1,2.6,1
						c0,0,0,0,0,0l64.7-0.1c2,0,3.6-1.5,3.6-3.4L94.6,138c0-0.9-0.4-1.7-1-2.4C92.9,134.9,92,134.6,91,134.6
						C91,134.6,91,134.6,91,134.6L91,134.6z M91,130.7L91,130.7L91,130.7z"/>
					<path class="st0" d="M26.6,267.7L26.6,267.7c-3.2,0-6.2-1.2-8.5-3.4c-2.3-2.3-3.6-5.3-3.6-8.4l-0.2-117.7
						c0-6.5,5.4-11.9,12-11.9l64.7-0.1c3.2,0,6.2,1.2,8.5,3.4c2.3,2.3,3.6,5.3,3.6,8.4l0.2,117.7c0,3.2-1.2,6.2-3.5,8.4
						c-2.3,2.3-5.3,3.5-8.5,3.5L26.6,267.7z M91,127.6l-64.7,0.1c-5.8,0-10.6,4.7-10.6,10.4L16,255.8c0,2.8,1.1,5.4,3.1,7.4
						c2,1.9,4.6,3,7.4,3h0l64.7-0.1c2.8,0,5.5-1.1,7.5-3.1c2-2,3.1-4.6,3.1-7.4L101.6,138c0-2.8-1.1-5.4-3.1-7.4
						C96.4,128.6,93.8,127.6,91,127.6z M26.6,260c-1.2,0-2.3-0.4-3.1-1.2c-0.8-0.8-1.3-1.8-1.3-2.9L22,138.1c0-1.1,0.5-2.2,1.3-3
						c0.8-0.8,1.9-1.2,3-1.2l64.7-0.1c1.2,0,2.3,0.4,3.1,1.2c0.8,0.8,1.3,1.8,1.3,2.9l0.2,117.7c0,2.3-1.9,4.2-4.3,4.2L26.6,260z
						 M91,134.6v0.7l-64.7,0.1c-0.8,0-1.5,0.3-2,0.8c-0.5,0.5-0.8,1.2-0.8,1.9l0.2,117.7c0,0.7,0.3,1.4,0.8,1.9
						c0.5,0.5,1.3,0.8,2.1,0.8l64.7-0.1c1.6,0,2.9-1.2,2.9-2.7L93.9,138c0-0.7-0.3-1.4-0.8-1.9c-0.5-0.5-1.3-0.8-2.1-0.8L91,134.6z
						 M91,131.4l0-1.5h0V131.4z"/>
				</g>
			</g>
		</g>
		<g>
			<g>
				<path class="st0" d="M263.6,170.6h-34c-2.1,0-3.9-1.7-3.9-3.9c0-2.1,1.7-3.9,3.9-3.9h34c2.1,0,3.9,1.7,3.9,3.9
					C267.5,168.9,265.8,170.6,263.6,170.6z"/>
				<path class="st0" d="M263.6,171.3h-34c-2.5,0-4.6-2.1-4.6-4.6s2.1-4.6,4.6-4.6h34c2.5,0,4.6,2.1,4.6,4.6
					S266.2,171.3,263.6,171.3z M229.6,163.6c-1.7,0-3.1,1.4-3.1,3.1s1.4,3.1,3.1,3.1h34c1.7,0,3.1-1.4,3.1-3.1s-1.4-3.1-3.1-3.1
					H229.6z"/>
			</g>
		</g>
		<g>
			<g>
				<path class="st0" d="M256.6,203.7h-34c-2.1,0-3.9-1.7-3.9-3.9s1.7-3.9,3.9-3.9h34c2.1,0,3.9,1.7,3.9,3.9
					S258.7,203.7,256.6,203.7z"/>
				<path class="st0" d="M256.6,204.5h-34c-2.5,0-4.6-2.1-4.6-4.6s2.1-4.6,4.6-4.6h34c2.5,0,4.6,2.1,4.6,4.6
					S259.1,204.5,256.6,204.5z M222.6,196.7c-1.7,0-3.1,1.4-3.1,3.1s1.4,3.1,3.1,3.1h34c1.7,0,3.1-1.4,3.1-3.1s-1.4-3.1-3.1-3.1
					H222.6z"/>
			</g>
		</g>
		<g>
			<g>
				<path class="st0" d="M249.5,236.9h-34c-2.1,0-3.9-1.7-3.9-3.9c0-2.1,1.7-3.9,3.9-3.9h34c2.1,0,3.9,1.7,3.9,3.9
					C253.4,235.2,251.7,236.9,249.5,236.9z"/>
				<path class="st0" d="M249.5,237.6h-34c-2.5,0-4.6-2.1-4.6-4.6s2.1-4.6,4.6-4.6h34c2.5,0,4.6,2.1,4.6,4.6
					S252.1,237.6,249.5,237.6z M215.5,229.9c-1.7,0-3.1,1.4-3.1,3.1s1.4,3.1,3.1,3.1h34c1.7,0,3.1-1.4,3.1-3.1s-1.4-3.1-3.1-3.1
					H215.5z"/>
			</g>
		</g>
	</g>
</g>
</svg>
