<?xml version="1.0" standalone="no"?>
<!DOCTYPE svg PUBLIC "-//W3C//DTD SVG 20010904//EN"
 "http://www.w3.org/TR/2001/REC-SVG-20010904/DTD/svg10.dtd">
<svg version="1.0" xmlns="http://www.w3.org/2000/svg"
 width="225.000000pt" height="225.000000pt" viewBox="0 0 225.000000 225.000000"
 preserveAspectRatio="xMidYMid meet">
<metadata>
Created by potrace 1.16, written by Peter Selinger 2001-2019
</metadata>
<g transform="translate(0.000000,225.000000) scale(0.100000,-0.100000)"
fill="#000000" stroke="none">
<path d="M382 1805 c-35 -8 -83 -23 -105 -35 -58 -28 -152 -113 -183 -165 -23
-40 -56 -161 -48 -176 2 -4 50 -10 106 -13 57 -4 115 -9 131 -12 23 -5 27 -2
27 18 0 70 44 144 103 175 41 21 124 20 165 -1 50 -26 92 -99 92 -160 0 -88
-32 -138 -171 -266 -225 -210 -310 -294 -372 -370 -60 -75 -109 -166 -120
-227 l-7 -33 470 0 470 0 0 105 0 105 -266 2 -267 3 34 34 c19 18 98 87 175
152 170 142 234 211 280 304 84 171 67 333 -47 447 -106 106 -291 151 -467
113z"/>
<path d="M1080 1175 l0 -637 313 5 c259 3 323 7 377 22 107 29 164 61 223 125
105 114 147 245 147 464 0 86 -6 168 -15 211 -46 215 -212 390 -405 426 -30 5
-187 12 -347 16 l-293 6 0 -638z m565 416 c63 -29 150 -122 175 -187 73 -196
34 -517 -73 -598 -60 -46 -135 -66 -247 -66 l-100 0 0 441 0 442 102 -7 c65
-5 118 -14 143 -25z"/>
</g>
</svg>
