<?xml version="1.0" standalone="no"?>
<!DOCTYPE svg PUBLIC "-//W3C//DTD SVG 20010904//EN"
 "http://www.w3.org/TR/2001/REC-SVG-20010904/DTD/svg10.dtd">
<svg version="1.0" xmlns="http://www.w3.org/2000/svg"
 width="225.000000pt" height="225.000000pt" viewBox="0 0 225.000000 225.000000"
 preserveAspectRatio="xMidYMid meet">
<metadata>
Created by potrace 1.16, written by Peter Selinger 2001-2019
</metadata>
<g transform="translate(0.000000,225.000000) scale(0.100000,-0.100000)"
fill="#000000" stroke="none">
<path d="M1242 2073 l178 -178 58 58 c32 31 64 57 73 57 29 0 200 -120 269
-189 80 -81 167 -208 210 -310 32 -74 70 -218 70 -263 0 -28 0 -28 71 -28 l72
0 -7 57 c-50 426 -376 805 -797 927 -90 26 -230 46 -319 46 l-55 0 177 -177z"/>
<path d="M702 1486 c-82 -27 -142 -94 -142 -160 0 -25 2 -26 60 -26 57 0 60 1
60 24 0 40 52 76 110 76 63 0 99 -29 106 -85 12 -86 -39 -135 -138 -135 l-58
0 0 -44 0 -43 65 -6 c108 -10 145 -43 145 -128 0 -33 -7 -48 -34 -75 -29 -29
-41 -34 -80 -34 -25 0 -57 5 -71 12 -27 12 -55 54 -55 83 0 12 -13 15 -61 15
l-62 0 6 -41 c26 -194 375 -228 458 -44 40 86 11 196 -61 237 l-38 22 33 23
c48 33 79 103 71 160 -9 70 -47 127 -102 153 -57 28 -153 35 -212 16z"/>
<path d="M1130 1125 l0 -377 154 3 c152 4 153 4 222 39 130 66 179 168 172
356 -3 91 -8 118 -30 165 -32 71 -86 124 -157 158 -51 24 -69 26 -208 29
l-153 4 0 -377z m318 247 c22 -11 49 -38 67 -67 29 -47 30 -51 30 -179 0 -121
-2 -134 -25 -174 -38 -66 -93 -94 -188 -96 l-77 -1 -3 260 c-1 143 0 266 3
274 8 20 144 9 193 -17z"/>
<path d="M10 1001 c0 -41 25 -158 51 -233 114 -342 404 -621 749 -721 91 -27
230 -47 320 -47 l55 0 -175 175 c-96 96 -177 175 -180 175 -3 0 -23 -17 -45
-38 -87 -80 -77 -76 -132 -49 -176 90 -351 282 -434 477 -35 84 -69 209 -69
257 l0 33 -70 0 -70 0 0 -29z"/>
</g>
</svg>
