<?xml version="1.0" encoding="utf-8"?>
<!-- Generator: Adobe Illustrator 25.2.1, SVG Export Plug-In . SVG Version: 6.00 Build 0)  -->
<svg version="1.1" id="Layer_1" xmlns="http://www.w3.org/2000/svg" xmlns:xlink="http://www.w3.org/1999/xlink" x="0px" y="0px"
	 viewBox="0 0 300 300" style="enable-background:new 0 0 300 300;" xml:space="preserve">
<style type="text/css">
	.st0{fill:#3552FF;}
	.st1{fill:#FFFFFF;}
	.st2{fill:#FF4343;}
	.st3{fill:#8E6BFE;}
	.st4{fill:#FFFFFF;stroke:#FFFFFF;stroke-width:0.25;stroke-miterlimit:10;}
	.st5{fill:#FFFFFF;fill-opacity:0;}
	.st6{fill:#8E6BFE;fill-opacity:0;}
	.st7{fill-rule:evenodd;clip-rule:evenodd;fill:#FFFFFF;stroke:#8E6BFE;stroke-width:1.4;stroke-miterlimit:10;}
	.st8{fill:#FFFFFF;stroke:#FFFFFF;stroke-width:0.5;stroke-miterlimit:10;}
	.st9{fill:#FFFFFF;stroke:#8E6BFE;stroke-miterlimit:10;}
	.st10{fill:#FFFFFF;stroke:#8E6BFE;stroke-width:0.5;stroke-miterlimit:10;}
</style>
<g>
	<g>
		<circle class="st3" cx="150" cy="150" r="123.2"/>
	</g>
	<path class="st7" d="M142,73.4c-0.8,0-1.6,0.2-2.3,0.6l-75,43.5c-3.6,2-3.6,6.8,0,8.9l19.2,10.5v39c0,8.9,8.4,15.3,16.4,18.9
		c11.5,5.2,26.9,7.7,42.3,7.7c19.4,0,38.7-4.1,49.9-12.2c5.2-3.6,9.2-8.4,9.2-14.5v-39l10.8-6v98.6c0,2.8,2,5.2,4.4,5.6
		c0.2,0,0.5,0.1,0.7,0.1c2.9,0,5.3-2.3,5.3-4.9V121.9c-0.4-2-1.2-3.6-3.2-4.4l-75-43.5C143.7,73.7,142.8,73.4,142,73.4z
		 M190.4,143.7v33c-0.4,1.6-2,3.6-3.6,4.4c-7.8,6.9-25.8,11.1-45.1,11.1c-6.5,0-13.1-0.5-19.5-1.5c-6.4-0.8-14-2.8-20-6
		c-3.2-1.6-8.4-4.8-8.4-8.4v-32.6c23.2,13.3,22,12.5,45.9,26.2c0.6,0.4,1.4,0.6,2.3,0.6s1.7-0.2,2.5-0.6
		C144.9,169,186.8,144.9,190.4,143.7z M142.1,84.5l64.3,37.4c-34.3,19.7,16-9.2-64.3,37c-81-46.3-29.1-16.5-64.2-37L142.1,84.5z"/>
</g>
</svg>
