<?xml version="1.0" encoding="utf-8"?>
<!-- Generator: Adobe Illustrator 25.2.1, SVG Export Plug-In . SVG Version: 6.00 Build 0)  -->
<svg version="1.1" id="Layer_1" xmlns="http://www.w3.org/2000/svg" xmlns:xlink="http://www.w3.org/1999/xlink" x="0px" y="0px"
	 viewBox="0 0 300 300" style="enable-background:new 0 0 300 300;" xml:space="preserve">
<style type="text/css">
	.st0{fill:#3552FF;}
	.st1{fill:#FFFFFF;}
	.st2{fill:#FF4343;}
	.st3{fill:#8E6BFE;}
	.st4{fill:#FFFFFF;stroke:#FFFFFF;stroke-width:0.25;stroke-miterlimit:10;}
	.st5{fill:#FFFFFF;fill-opacity:0;}
	.st6{fill:#8E6BFE;fill-opacity:0;}
	.st7{fill-rule:evenodd;clip-rule:evenodd;fill:#FFFFFF;stroke:#8E6BFE;stroke-width:1.4;stroke-miterlimit:10;}
	.st8{fill:#FFFFFF;stroke:#FFFFFF;stroke-width:0.5;stroke-miterlimit:10;}
	.st9{fill:#FFFFFF;stroke:#8E6BFE;stroke-miterlimit:10;}
	.st10{fill:#FFFFFF;stroke:#8E6BFE;stroke-width:0.5;stroke-miterlimit:10;}
</style>
<g>
	<g>
		<circle class="st3" cx="150" cy="150" r="123.2"/>
	</g>
	<path class="st7" d="M96.5,76.4c-4.3,0-8.5,1.7-11.7,5l-8.5,8.2C73.4,92.9,72,97,72,101.5c0,4.1,1.8,8.5,4.4,11.5l10.7,10.8
		c0,0,14.7,14.8,14.4,14.8l7.7,7.8l-12.9,13l-1.5,1.5l-22.1,22.3c-1.8,1.8-1.8,4.8,0,6.7l34.3,34.5c0.9,0.9,2.1,1.4,3.3,1.4
		c1.2,0,2.4-0.5,3.3-1.4l36.1-36.4l21.4,21.5c0.4,0.4,0.7,0.7,1.5,0.7c0.7,1.1,1.5,1.8,2.9,2.6l36.9,12.3c0.6,0.2,1.1,0.3,1.7,0.3
		c3,0,5.5-3.1,4.2-6.3L207.3,182c-0.4-0.7-0.7-1.8-2.2-2.6c-0.4-1.1,0.7,0.7-22.5-23.4l35.8-36c1.8-1.9,1.8-5.2,0-7.1l-33.9-34.5
		c-0.9-0.9-2.2-1.4-3.5-1.4c-1.3,0-2.6,0.5-3.5,1.4l-17,17.5L159,97l-17.3,17.8l-33.2-33.4C105.1,78.1,100.8,76.4,96.5,76.4z
		 M117,154.2l27.3,27.5l-32.8,33l-27.3-27.5l15.8-16l10,10.4c0.9,0.9,2.2,1.4,3.5,1.4s2.6-0.5,3.5-1.4c1.8-1.9,1.8-5.2,0-7.1l-10-10
		L117,154.2z M199.5,189.8l7.7,23.4l-24-7.8L199.5,189.8z M129.9,117c3.7,3.7,62.3,62,64.2,64.6l-18.4,17.4l-63.8-63.8L129.9,117z
		 M181.5,88.8l27.3,27.5L175.9,149l-27.3-27.5l14.7-14.5l10.3,10c0.9,0.9,2.2,1.4,3.5,1.4c1.3,0,2.6-0.5,3.5-1.4
		c1.8-1.9,1.8-5.2,0-7.1l-10.3-10L181.5,88.8z M115.5,102.6l8.1,8.2l-18.1,17.8l-7.7-7.8L115.5,102.6z M96.9,86.6
		c1.7,0,3.5,0.7,4.9,2.2l7,7l-18.1,17.8l-7-6.7c-0.4-0.7-1.5-1.5-1.5-2.6c-0.7-2.2-0.4-5.6,1.5-7.4l8.5-8.2
		C93.5,87.3,95.2,86.6,96.9,86.6z"/>
</g>
</svg>
