<svg id="svg" version="1.1" xmlns="http://www.w3.org/2000/svg" xmlns:xlink="http://www.w3.org/1999/xlink" width="400" height="400" viewBox="0, 0, 400,400"><g id="svgg"><path id="path0" d="M254.475 170.741 L 254.475 260.635 272.185 260.635 L 289.894 260.635 289.894 170.741 L 289.894 80.847 272.185 80.847 L 254.475 80.847 254.475 170.741 M146.102 197.883 L 146.102 260.635 163.908 260.635 L 181.713 260.635 181.713 197.883 L 181.713 135.130 163.908 135.130 L 146.102 135.130 146.102 197.883 M200.192 224.828 L 200.192 260.635 218.096 260.635 L 236.000 260.635 235.902 224.928 L 235.804 189.220 217.998 189.120 L 200.192 189.020 200.192 224.828 M92.012 233.879 L 92.012 260.635 110.106 260.635 L 128.200 260.635 128.200 233.879 L 128.200 207.122 110.106 207.122 L 92.012 207.122 92.012 233.879 M55.823 297.016 L 55.823 314.918 200.000 314.918 L 344.177 314.918 344.177 297.016 L 344.177 279.115 200.000 279.115 L 55.823 279.115 55.823 297.016 " stroke="none" fill="#fbfbfb" fill-rule="evenodd"></path><path id="path1" d="M187.295 2.547 C 69.174 11.652,-13.897 116.173,4.834 232.123 C 22.198 339.611,123.994 412.633,232.123 395.166 C 339.611 377.802,412.633 276.006,395.166 167.877 C 381.766 84.930,316.340 19.076,233.355 5.009 C 221.068 2.926,198.222 1.705,187.295 2.547 M290.184 170.837 L 290.281 261.020 272.186 261.020 L 254.090 261.020 254.090 170.998 C 254.090 121.485,254.208 80.858,254.351 80.715 C 254.494 80.572,262.593 80.499,272.349 80.554 L 290.087 80.654 290.184 170.837 M182.098 197.883 L 182.098 261.020 164.004 261.020 L 145.910 261.020 145.910 197.883 L 145.910 134.745 164.004 134.745 L 182.098 134.745 182.098 197.883 M235.951 189.166 C 236.268 189.548,236.359 199.297,236.287 225.258 L 236.189 260.828 217.998 260.928 L 199.808 261.028 199.808 225.092 C 199.808 205.327,199.923 189.041,200.064 188.900 C 200.615 188.349,235.488 188.608,235.951 189.166 M128.107 233.975 L 128.205 261.020 109.916 261.020 L 91.627 261.020 91.627 234.135 C 91.627 219.349,91.744 207.133,91.887 206.990 C 92.030 206.847,100.216 206.775,110.078 206.830 L 128.008 206.930 128.107 233.975 M344.177 297.016 L 344.177 315.303 200.000 315.303 L 55.823 315.303 55.823 297.016 L 55.823 278.730 200.000 278.730 L 344.177 278.730 344.177 297.016 " stroke="none" fill="#9c6cfc" fill-rule="evenodd"></path><path id="path2" d="M290.083 170.741 C 290.083 219.865,290.128 239.904,290.183 215.272 C 290.238 190.640,290.238 150.448,290.183 125.956 C 290.128 101.463,290.083 121.617,290.083 170.741 M164.003 135.032 L 181.711 135.138 181.810 197.790 L 181.909 260.443 181.907 197.690 L 181.906 134.937 164.100 134.932 L 146.294 134.926 164.003 135.032 M199.992 224.832 C 199.992 244.629,200.039 252.729,200.096 242.830 C 200.153 232.931,200.153 216.732,200.096 206.833 C 200.039 196.935,199.992 205.034,199.992 224.832 M91.804 207.218 C 91.702 207.483,91.666 219.654,91.722 234.264 L 91.824 260.828 91.918 233.979 L 92.012 207.130 109.817 207.026 L 127.623 206.922 109.805 206.830 C 95.837 206.757,91.948 206.841,91.804 207.218 " stroke="none" fill="#aca2c6" fill-rule="evenodd"></path><path id="path3" d="M254.282 170.837 L 254.283 260.828 272.153 260.828 C 286.327 260.828,290.043 260.726,290.122 260.337 C 290.177 260.067,290.133 260.024,290.026 260.241 C 289.896 260.502,283.841 260.635,272.154 260.635 L 254.477 260.635 254.379 170.741 L 254.281 80.847 254.282 170.837 M146.097 197.883 C 146.097 232.291,146.143 246.367,146.198 229.163 C 146.254 211.959,146.254 183.807,146.198 166.603 C 146.143 149.398,146.097 163.474,146.097 197.883 M100.989 260.924 C 106.032 260.985,114.175 260.984,119.083 260.924 C 123.992 260.863,119.865 260.813,109.913 260.813 C 99.962 260.813,95.946 260.863,100.989 260.924 M155.053 260.924 C 159.976 260.985,168.032 260.985,172.955 260.924 C 177.878 260.863,173.850 260.813,164.004 260.813 C 154.158 260.813,150.130 260.863,155.053 260.924 M208.951 260.924 C 213.874 260.985,221.930 260.985,226.853 260.924 C 231.776 260.863,227.748 260.813,217.902 260.813 C 208.056 260.813,204.028 260.863,208.951 260.924 M127.943 279.018 C 167.715 279.072,232.681 279.072,272.312 279.018 C 311.944 278.964,279.403 278.920,200.000 278.920 C 120.597 278.920,88.171 278.964,127.943 279.018 M127.943 315.207 C 167.715 315.261,232.681 315.261,272.312 315.207 C 311.944 315.153,279.403 315.109,200.000 315.109 C 120.597 315.109,88.171 315.153,127.943 315.207 " stroke="none" fill="#c0bccc" fill-rule="evenodd"></path><path id="path4" d="M263.234 80.750 C 268.157 80.811,276.213 80.811,281.136 80.750 C 286.059 80.689,282.031 80.640,272.185 80.640 C 262.339 80.640,258.311 80.689,263.234 80.750 M208.951 188.931 C 213.874 188.992,221.930 188.992,226.853 188.931 C 231.776 188.870,227.748 188.821,217.902 188.821 C 208.056 188.821,204.028 188.870,208.951 188.931 M236.181 225.024 C 236.181 244.716,236.228 252.715,236.285 242.801 C 236.342 232.886,236.342 216.774,236.285 206.997 C 236.228 197.220,236.181 205.332,236.181 225.024 " stroke="none" fill="#9c7ce0" fill-rule="evenodd"></path></g></svg>