<?xml version="1.0" encoding="utf-8"?>
<!-- Generator: Adobe Illustrator 25.2.1, SVG Export Plug-In . SVG Version: 6.00 Build 0)  -->
<svg version="1.1" id="Layer_1" xmlns="http://www.w3.org/2000/svg" xmlns:xlink="http://www.w3.org/1999/xlink" x="0px" y="0px"
	 viewBox="0 0 300 300" style="enable-background:new 0 0 300 300;" xml:space="preserve">
<style type="text/css">
	.st0{fill:#3552FF;}
	.st1{fill:#FFFFFF;}
	.st2{fill:#FF4343;}
	.st3{fill:#8E6BFE;}
	.st4{fill:#FFFFFF;stroke:#FFFFFF;stroke-width:0.25;stroke-miterlimit:10;}
	.st5{fill:#FFFFFF;fill-opacity:0;}
	.st6{fill:#8E6BFE;fill-opacity:0;}
	.st7{fill-rule:evenodd;clip-rule:evenodd;fill:#FFFFFF;stroke:#8E6BFE;stroke-width:1.4;stroke-miterlimit:10;}
	.st8{fill:#FFFFFF;stroke:#FFFFFF;stroke-width:0.5;stroke-miterlimit:10;}
	.st9{fill:#FFFFFF;stroke:#8E6BFE;stroke-miterlimit:10;}
	.st10{fill:#FFFFFF;stroke:#8E6BFE;stroke-width:0.5;stroke-miterlimit:10;}
</style>
<g>
	<g>
		<circle class="st3" cx="150" cy="150" r="123.2"/>
	</g>
	<g>
		<path class="st7" d="M149.5,100c-2.3,0-4.1,1.8-4.1,4.1c0,9.4-4,26.5-10.4,32.9l-0.3,0.3c-2.7,2.7-5.8,4.9-9.2,6.6l-4.7,2.3v-1.5
			c0-2.2-1.8-4.1-4.1-4.1H92c-2.3,0-4.1,1.8-4.1,4.1v65.1c0,2.2,1.8,4.1,4.1,4.1h24.6c2.3,0,4.1-1.8,4.1-4.1v-2.5l6.6,2.2
			c8.8,2.9,18,4.4,27.3,4.4h27.7c8.7,0,14.6-8.6,11.4-16.6c7.1-1.9,10.9-9.5,8.2-16.2c5.3-1.4,9.1-6.2,9.1-11.7c0-3.1-1.2-6-3.2-8.3
			c3.3-3.6,4.1-8.7,2.1-13.1c-2-4.4-6.4-7.2-11.3-7.2H165c3.4-7.8,5-18.3,5-23.6c0-9.3-7.7-16.9-17.1-16.9H149.5z M153.4,108.1
			c4.7,0.3,8.4,4.1,8.4,8.8c0,7-3,20.8-7,24.8c-2.6,2.5-0.7,6.9,2.9,6.9h41c2.3,0,4.1,1.8,4.1,4.1c0,2.2-1.8,4-4.1,4h-24.6
			c-2.3,0-4.1,1.8-4.1,4.1c0,2.2,1.8,4,4.1,4h24.6c2.2,0,4.1,2,4.1,4.3c0,2.2-1.8,4.1-4.1,4.1h-24.6c-2.3,0-4.1,1.8-4.1,4
			c0,2.2,1.8,4.1,4.1,4.1h16.4c2.3,0,4.1,1.8,4.1,4c0,2.2-1.8,4.1-4.1,4.1h-16.4c-2.3,0-4.1,1.8-4.1,4c0,2.2,1.8,4.1,4.1,4.1h8.2
			c2.3,0,4.1,1.8,4.1,4c0,2.2-1.8,4.1-4.1,4.1h-27.7c-8.4,0-16.7-1.3-24.7-3.9l-9.2-3v-43.4l8.4-4.1c4.2-2.1,8.1-4.8,11.4-8.1
			l0.3-0.3C148.5,135.1,152.6,119,153.4,108.1z M112.6,148.6v57H96.1v-57H112.6z"/>
		<path class="st7" d="M168.2,70.9c-1.8,0-3.5,0.9-4.4,2.6l-4.9,9.4c-1.2,2.3-0.2,5.1,2.2,6.3c0.7,0.3,1.4,0.5,2.2,0.5
			c1.8,0,3.5-1,4.4-2.6l4.9-9.4c1.2-2.3,0.2-5.2-2.2-6.3C169.7,71,168.9,70.9,168.2,70.9z"/>
		<path class="st7" d="M187.2,93.8c-1.2-1.3-3.1-1.9-4.9-1.5l-10.2,2.8c-2.5,0.7-3.9,3.3-3.2,5.9c0.2,0.7,0.6,1.4,1.1,1.9
			c1.2,1.3,3.1,2,4.9,1.5l10.2-2.8c2.5-0.7,4-3.3,3.1-5.9C188.1,95,187.7,94.4,187.2,93.8z"/>
		<g>
			<path class="st7" d="M134.7,70.9c1.8,0,3.5,0.9,4.4,2.6l4.9,9.4c1.2,2.3,0.2,5.1-2.2,6.3c-0.7,0.3-1.4,0.5-2.2,0.5
				c-1.8,0-3.5-1-4.4-2.6l-4.9-9.4c-1.2-2.3-0.2-5.2,2.2-6.3C133.2,71,134,70.9,134.7,70.9z"/>
			<path class="st7" d="M115.7,93.8c1.2-1.3,3.1-1.9,4.9-1.5l10.2,2.8c2.5,0.7,3.9,3.3,3.2,5.9c-0.2,0.7-0.6,1.4-1.1,1.9
				c-1.2,1.3-3.1,2-4.9,1.5l-10.2-2.8c-2.5-0.7-4-3.3-3.1-5.9C114.8,95,115.2,94.4,115.7,93.8z"/>
		</g>
	</g>
</g>
</svg>
