<?xml version="1.0" encoding="utf-8"?>
<!-- Generator: Adobe Illustrator 25.2.1, SVG Export Plug-In . SVG Version: 6.00 Build 0)  -->
<svg version="1.1" id="Layer_1" xmlns="http://www.w3.org/2000/svg" xmlns:xlink="http://www.w3.org/1999/xlink" x="0px" y="0px"
	 viewBox="0 0 500 500" style="enable-background:new 0 0 500 500;" xml:space="preserve">
<style type="text/css">
	.st0{fill:#3552FF;}
	.st1{fill:#FFFFFF;}
	.st2{fill:#FF4343;}
	.st3{fill:#8E6BFE;}
	.st4{fill:#FFFFFF;stroke:#FFFFFF;stroke-width:0.25;stroke-miterlimit:10;}
	.st5{fill:#FFFFFF;fill-opacity:0;}
	.st6{fill:#8E6BFE;fill-opacity:0;}
	.st7{fill-rule:evenodd;clip-rule:evenodd;fill:#FFFFFF;stroke:#8E6BFE;stroke-width:1.4;stroke-miterlimit:10;}
	.st8{fill:#FFFFFF;stroke:#FFFFFF;stroke-width:3;stroke-miterlimit:10;}
	.st9{fill:#FFFFFF;stroke:#8E6BFE;stroke-miterlimit:10;}
	.st10{fill:#FFFFFF;stroke:#8E6BFE;stroke-width:0.5;stroke-miterlimit:10;}
	.st11{fill-rule:evenodd;clip-rule:evenodd;fill:#FFFFFF;}
	.st12{fill:#FFFFFF;stroke:#FFFFFF;stroke-miterlimit:10;}
</style>
<circle class="st3" cx="250" cy="250" r="216.8"/>
<g>
	<g>
		<path class="st1" d="M167.2,201.3c14.3,0,25.9-11.6,25.9-25.9s-11.6-25.9-25.9-25.9c-14.3,0-25.9,11.6-25.9,25.9
			S152.9,201.3,167.2,201.3z M167.2,158.1c9.5,0,17.2,7.7,17.2,17.2s-7.7,17.2-17.2,17.2s-17.2-7.7-17.2-17.2
			S157.7,158.1,167.2,158.1z"/>
		<path class="st1" d="M338.7,174.4H232.3c-2.1,0-3.9-1.7-3.9-3.9c0-2.2,1.7-3.9,3.9-3.9h106.4c2.1,0,3.9,1.7,3.9,3.9
			C342.6,172.7,340.9,174.4,338.7,174.4z"/>
		<path class="st1" d="M338.7,198.1h-82.1c-2.1,0-3.9-1.7-3.9-3.9c0-2.1,1.7-3.9,3.9-3.9h82.1c2.1,0,3.9,1.7,3.9,3.9
			C342.5,196.3,340.9,198.1,338.7,198.1z"/>
		<path class="st1" d="M338.7,221.6h-68.5c-2.1,0-3.9-1.7-3.9-3.9s1.7-3.9,3.9-3.9h68.5c2.1,0,3.9,1.7,3.9,3.9
			C342.5,220,340.9,221.6,338.7,221.6z"/>
		<path class="st1" d="M372.5,114.9H195.4c-1.2,0-2.2,0.9-2.2,2.2v21.6c0,1.2,0.9,2.2,2.2,2.2h4.3c1.2,0,2.2,0.9,2.2,2.2v64.8
			c0,1.2-0.9,2.2-2.2,2.2h-62.6c-11.9,0-21.6,9.7-21.6,21.6v41c0,8.3,6.8,15.1,15.1,15.1h4.3c1.2,0,2.2,0.9,2.2,2.2v82.1
			c0,0.2,0,0.2,0.1,0.4v3.7c0,7.8,6.3,14.1,14.1,14.1h6.2c3.9,0,7.3-1.6,9.8-4l0,0c2.5,2.5,6.1,4,9.8,4h6.2
			c7.8,0,14.1-6.3,14.1-14.1l-0.1-3.9c0-0.1,0-0.2,0-0.2V242.5c0-1.2,0.9-2.3,2-2.3c1.3-0.1,2.3,0.9,2.3,2.1v8.7
			c0,8.3,6.8,15.1,15.1,15.1h47.5c1.2,0,2.2,0.9,2.2,2.2v2.1c0,5.4,3.4,10.2,8.3,12c1.2,0.5,1.7,1.8,1.1,2.9l-38.4,80.5
			c-0.6,1.1-0.1,2.4,1,2.9l3.9,1.8c1.1,0.6,2.4,0.1,2.9-1l29.9-62.8c1-2.1,4.2-1.4,4.2,0.9v64.1c0,1.2,0.9,2.2,2.2,2.2h4.3
			c1.2,0,2.2-0.9,2.2-2.2v-64.1c0-2.4,3.2-3.1,4.2-0.9l29.9,62.8c0.6,1.1,1.8,1.6,2.9,1l3.9-1.8c1.1-0.6,1.5-1.8,1-2.9l-38.4-80.6
			c-0.6-1.1,0-2.5,1.1-3c5-1.9,8.3-6.6,8.3-12v-2c0-1.2,0.9-2.2,2.2-2.2h47.5c8.3,0,15.1-6.8,15.1-15.1v-108c0-1.2,0.9-2.2,2.2-2.2
			h4.3c1.2,0,2.2-0.9,2.2-2.2V117C374.7,115.8,373.6,114.9,372.5,114.9z M191,231.5c-1.2,0-2.2,0.9-2.2,2.2v135.7l-0.1,6.6
			c0,2.9-2.4,5.4-5.4,5.4h-6.2c-2.9,0-5.4-2.4-5.4-5.4l-0.3-11.6v-72.5l0,0h-8.6l0,0v72l-0.2,12c0,2.9-2.4,5.4-5.4,5.4H151
			c-2.9,0-5.4-2.4-5.4-5.4l-0.2-7.9V238.1c0-1.2-0.9-2.2-2.2-2.2h-4.3c-1.2,0-2.2,0.9-2.2,2.2v38.8c0,1.2-0.9,2.2-2.2,2.2h-4.3
			c-3.6,0-6.5-2.9-6.5-6.5v-38.8c0-8.3,6.8-15.1,15.1-15.1H238c1.4,0,2.4,1.3,2.1,2.6c-1.2,5.9-6.5,10.3-12.7,10.3L191,231.5
			L191,231.5z M292.5,270.4c0,2.4-2,4.3-4.3,4.3h-8.6c-2.4,0-4.3-2-4.3-4.3v-4.3l0,0h17.2l0,0L292.5,270.4L292.5,270.4z
			 M357.3,253.1c0,2.4-2,4.3-4.3,4.3H214.8c-2.4,0-4.3-2-4.3-4.3v-12.9l0,0h17.2c11.9,0,21.6-9.7,21.6-21.6V210l0,0h-38.8l0,0v-69.2
			l0,0h146.9l0,0L357.3,253.1L357.3,253.1z M366,132.1H201.8l0,0v-8.5l0,0H366l0,0V132.1L366,132.1z"/>
	</g>
</g>
</svg>
