<?xml version="1.0" encoding="utf-8"?>
<!-- Generator: Adobe Illustrator 25.2.1, SVG Export Plug-In . SVG Version: 6.00 Build 0)  -->
<svg version="1.1" id="Layer_1" xmlns="http://www.w3.org/2000/svg" xmlns:xlink="http://www.w3.org/1999/xlink" x="0px" y="0px"
	 viewBox="0 0 500 500" style="enable-background:new 0 0 500 500;" xml:space="preserve">
<style type="text/css">
	.st0{fill:#3552FF;}
	.st1{fill:#FFFFFF;}
	.st2{fill:#FF4343;}
	.st3{fill:#8E6BFE;}
	.st4{fill:#FFFFFF;stroke:#FFFFFF;stroke-width:0.25;stroke-miterlimit:10;}
	.st5{fill:#FFFFFF;fill-opacity:0;}
	.st6{fill:#8E6BFE;fill-opacity:0;}
	.st7{fill-rule:evenodd;clip-rule:evenodd;fill:#FFFFFF;stroke:#8E6BFE;stroke-width:1.4;stroke-miterlimit:10;}
	.st8{fill:#FFFFFF;stroke:#FFFFFF;stroke-width:3;stroke-miterlimit:10;}
	.st9{fill:#FFFFFF;stroke:#8E6BFE;stroke-miterlimit:10;}
	.st10{fill:#FFFFFF;stroke:#8E6BFE;stroke-width:0.5;stroke-miterlimit:10;}
	.st11{fill-rule:evenodd;clip-rule:evenodd;fill:#FFFFFF;}
	.st12{fill:#FFFFFF;stroke:#FFFFFF;stroke-miterlimit:10;}
</style>
<circle class="st3" cx="250" cy="250" r="216.8"/>
<g>
	<path class="st11" d="M335,271.7L335,271.7c1.1-10.4,2.1-21,2.8-30.1c9.8,23.1,9.8,23.1,9.8,23.1L335,271.7z M318,329.6L318,329.6
		c0,0.4,0,0.5,0,0.7c0,3.1-2.5,5.6-5.5,5.6c-61.2,0-61.2,0-61.2,0c-7.1,0-13.7-2.7-18.7-7.9c-46.4-46.4-46.4-46.4-46.4-46.4h-0.2
		c-1.4-1.4-2.8-2.9-4.3-4.5h-0.2c-0.7-0.7-0.7-0.7-0.7-0.7c0-0.2-0.2-0.4-0.4-0.5c-13.9-15.6-21.4-35.4-21.4-56.2
		c0-22.6,8.8-43.7,24.6-59.8c16-15.9,37.3-24.7,59.8-24.7c11.4,0,22.6,2.3,33.2,6.6c10.2,4.3,19.3,10.4,27.1,18.3
		c7.9,7.7,14.1,16.7,18.6,26.9c4.5,10.4,6.8,21.5,6.8,32.8C329.1,245.6,318,328.9,318,329.6z M358.6,265.1L358.6,265.1
		c-19.5-46.6-19.5-46.6-19.5-46.6c-0.2-12.4-2.8-24.4-7.7-35.8c-4.8-11.1-11.8-21.3-20.7-29.9c-8.8-8.8-18.9-15.6-30.3-20.4
		c-11.8-4.8-24.1-7.3-36.9-7.3c-12.7,0-25.2,2.5-36.8,7.3c-11.3,4.8-21.4,11.7-30,20.4c-8.7,8.6-15.5,18.8-20.3,30.1
		c-4.8,11.6-7.3,24-7.3,36.7c0,22.8,8.2,44.8,23.2,62.2c0.2,0.3,0.5,0.7,0.9,0.9c1.3,1.4,1.3,1.4,1.3,1.4c1.3,1.3,2.3,2.5,3.6,3.6
		C159,369.9,159,369.9,159,369.9c-0.5,2.7,1.1,5.4,3.7,5.9c0.5,0.2,0.9,0.2,1.3,0.2c2.3,0,4.3-1.6,4.8-4c17.5-76,17.5-76,17.5-76
		c39.1,39.1,39.1,39.1,39.1,39.1c7,7,16.1,10.7,25.9,10.7c13.7,0,13.7,0,13.7,0c-5.9,23.8-5.9,23.8-5.9,23.8
		c-0.7,2.7,0.9,5.6,3.6,6.1c0.5,0.2,0.9,0.2,1.3,0.2c2.3,0,4.3-1.4,4.8-3.8c6.6-26.3,6.6-26.3,6.6-26.3c37.1,0,37.1,0,37.1,0
		c8.4,0,15.4-6.8,15.5-15.2c0.4-3,3-23.6,5.7-46.8c22.7-12.4,22.7-12.4,22.7-12.4C358.7,270.3,359.6,267.4,358.6,265.1z"/>
	<path class="st11" d="M243.1,196.7L243.1,196.7c-2.4,0-4.5-2.1-4.5-5c0-30.2,0-30.2,0-30.2c0-2.7,2.1-5.1,4.5-5.1
		c2.6,0,4.5,2.3,4.5,5.1c0,30.2,0,30.2,0,30.2C247.6,194.6,245.7,196.7,243.1,196.7"/>
	<path class="st11" d="M243.1,286.3L243.1,286.3c-2.4,0-4.5-2.3-4.5-5c0-30.3,0-30.3,0-30.3c0-2.8,2.1-5,4.5-5c2.6,0,4.5,2.2,4.5,5
		c0,30.3,0,30.3,0,30.3C247.6,284,245.7,286.3,243.1,286.3"/>
	<path class="st11" d="M305.3,223.6L305.3,223.6c-30.3,0-30.3,0-30.3,0c-2.7,0-5-1.9-5-4.5c0-2.4,2.3-4.5,5-4.5
		c30.3,0,30.3,0,30.3,0c2.9,0,5,2.1,5,4.5C310.3,221.7,308.2,223.6,305.3,223.6"/>
	<path class="st11" d="M215.6,223.6L215.6,223.6c-30.2,0-30.2,0-30.2,0c-2.9,0-5.1-1.9-5.1-4.5c0-2.4,2.2-4.5,5.1-4.5
		c30.2,0,30.2,0,30.2,0c2.7,0,5,2.1,5,4.5C220.7,221.7,218.3,223.6,215.6,223.6"/>
	<path class="st11" d="M203.9,263.9L203.9,263.9c-1.3,0-2.6-0.5-3.7-1.4c-2-1.8-2-4.5,0-6.2c20.1-17.5,20.1-17.5,20.1-17.5
		c2-1.8,5.3-1.8,7.3,0c2,1.8,2,4.4,0,6.2c-20,17.5-20,17.5-20,17.5C206.5,263.5,205.2,263.9,203.9,263.9"/>
	<path class="st11" d="M282.3,263.9L282.3,263.9c-1.3,0-2.5-0.5-3.4-1.4c-20.4-17.6-20.4-17.6-20.4-17.6c-2-1.7-2-4.4,0-6.1
		c2-1.7,5.2-1.7,7.2,0c20.2,17.6,20.2,17.6,20.2,17.6c2,1.7,2,4.4,0,6.1C285.1,263.5,283.8,263.9,282.3,263.9"/>
	<path class="st11" d="M224.1,205.7L224.1,205.7c-1.3,0-2.5-0.4-3.6-1.5c-20.2-20.5-20.2-20.5-20.2-20.5c-2-2-2-5.3,0-7.3
		c2-2,5.2-2,7.2,0c20.2,20.7,20.2,20.7,20.2,20.7c2,1.8,2,5.1,0,7.1C226.6,205.3,225.3,205.7,224.1,205.7"/>
</g>
</svg>
