<?xml version="1.0" encoding="utf-8"?>
<!-- Generator: Adobe Illustrator 25.2.1, SVG Export Plug-In . SVG Version: 6.00 Build 0)  -->
<svg version="1.1" id="Layer_1" xmlns="http://www.w3.org/2000/svg" xmlns:xlink="http://www.w3.org/1999/xlink" x="0px" y="0px"
	 viewBox="0 0 500 500" style="enable-background:new 0 0 500 500;" xml:space="preserve">
<style type="text/css">
	.st0{fill:#3552FF;}
	.st1{fill:#FFFFFF;}
	.st2{fill:#FF4343;}
	.st3{fill:#8E6BFE;}
	.st4{fill:#FFFFFF;stroke:#FFFFFF;stroke-width:0.25;stroke-miterlimit:10;}
	.st5{fill:#FFFFFF;fill-opacity:0;}
	.st6{fill:#8E6BFE;fill-opacity:0;}
	.st7{fill-rule:evenodd;clip-rule:evenodd;fill:#FFFFFF;stroke:#8E6BFE;stroke-width:1.4;stroke-miterlimit:10;}
	.st8{fill:#FFFFFF;stroke:#FFFFFF;stroke-width:3;stroke-miterlimit:10;}
	.st9{fill:#FFFFFF;stroke:#8E6BFE;stroke-miterlimit:10;}
	.st10{fill:#FFFFFF;stroke:#8E6BFE;stroke-width:0.5;stroke-miterlimit:10;}
	.st11{fill-rule:evenodd;clip-rule:evenodd;fill:#FFFFFF;}
	.st12{fill:#FFFFFF;stroke:#FFFFFF;stroke-miterlimit:10;}
</style>
<circle class="st3" cx="250" cy="250" r="216.8"/>
<path class="st1" d="M327.5,336c-3,0-5.4-2.3-5.5-5.3c-0.6-18.4-8.4-35.5-21.8-48.1c-13.5-12.6-31-19.2-49.5-18.6
	c-36.2,1.2-65.5,30.5-66.7,66.7c-0.1,3-2.6,5.4-5.7,5.3c-3-0.1-5.4-2.6-5.3-5.7c1.4-42,35.4-75.9,77.3-77.3
	c44.1-1.5,81.2,33.2,82.7,77.3c0.1,3-2.3,5.6-5.3,5.7C327.6,336,327.5,336,327.5,336z"/>
<path class="st1" d="M253,257.4c-25.7,0-46.6-20.9-46.6-46.6s20.9-46.6,46.6-46.6c25.7,0,46.6,20.9,46.6,46.6S278.7,257.4,253,257.4
	z M253,175.1c-19.7,0-35.7,16-35.7,35.7c0,19.7,16,35.7,35.7,35.7c19.7,0,35.7-16,35.7-35.7C288.6,191.1,272.6,175.1,253,175.1z"/>
<path class="st1" d="M253.2,366.4c-64.6,0-117.2-52.6-117.2-117.2S188.6,132,253.2,132c64.6,0,117.2,52.6,117.2,117.2
	S317.8,366.4,253.2,366.4z M253.2,143c-58.6,0-106.2,47.6-106.2,106.2s47.6,106.2,106.2,106.2s106.2-47.6,106.2-106.2
	S311.8,143,253.2,143z"/>
</svg>
