<?xml version="1.0" encoding="utf-8"?>
<!-- Generator: Adobe Illustrator 25.2.1, SVG Export Plug-In . SVG Version: 6.00 Build 0)  -->
<svg version="1.1" id="Layer_1" xmlns="http://www.w3.org/2000/svg" xmlns:xlink="http://www.w3.org/1999/xlink" x="0px" y="0px"
	 viewBox="0 0 500 500" style="enable-background:new 0 0 500 500;" xml:space="preserve">
<style type="text/css">
	.st0{fill:#3552FF;}
	.st1{fill:#FFFFFF;}
	.st2{fill:#FF4343;}
	.st3{fill:#8E6BFE;}
	.st4{fill:#FFFFFF;stroke:#FFFFFF;stroke-width:0.25;stroke-miterlimit:10;}
	.st5{fill:#FFFFFF;fill-opacity:0;}
	.st6{fill:#8E6BFE;fill-opacity:0;}
	.st7{fill-rule:evenodd;clip-rule:evenodd;fill:#FFFFFF;stroke:#8E6BFE;stroke-width:1.4;stroke-miterlimit:10;}
	.st8{fill:#FFFFFF;stroke:#FFFFFF;stroke-width:3;stroke-miterlimit:10;}
	.st9{fill:#FFFFFF;stroke:#8E6BFE;stroke-miterlimit:10;}
	.st10{fill:#FFFFFF;stroke:#8E6BFE;stroke-width:0.5;stroke-miterlimit:10;}
	.st11{fill-rule:evenodd;clip-rule:evenodd;fill:#FFFFFF;}
	.st12{fill:#FFFFFF;stroke:#FFFFFF;stroke-miterlimit:10;}
</style>
<circle class="st3" cx="250" cy="250" r="216.8"/>
<g>
	<g>
		<g>
			<path class="st9" d="M358.1,185.9c-1.7-1.3-4-1.7-6.1-1.1l-98.1,27.8c-3,0.8-5.1,3.6-5.1,6.7v94c-4.1-2.4-8.8-3.7-13.9-3.7
				c-15.3,0-27.8,12.5-27.8,27.8s12.5,27.8,27.8,27.8s27.8-12.5,27.8-27.8c0-0.7,0-85,0-85l84.2-23.8v57c-4.1-2.4-8.8-3.7-13.9-3.7
				c-15.3,0-27.8,12.5-27.8,27.8s12.5,27.8,27.8,27.8s27.8-12.5,27.8-27.8c0-0.6,0-118,0-118C360.8,189.2,359.8,187.2,358.1,185.9z
				 M235,351c-7.7,0-13.9-6.2-13.9-13.9s6.2-13.9,13.9-13.9s13.9,6.2,13.9,13.9S242.6,351,235,351z M333.1,323.3
				c-7.7,0-13.9-6.2-13.9-13.9c0-7.7,6.2-13.9,13.9-13.9c7.7,0,13.9,6.2,13.9,13.9C346.9,317,340.7,323.3,333.1,323.3z M346.9,213.9
				l-84.2,23.8v-13.3l84.2-23.8V213.9z"/>
		</g>
	</g>
	<g>
		<g>
			<path class="st9" d="M220.8,177.3c-15.4-11.3-26.7-22.5-34.5-34.2l-8-12c-1.7-2.5-4.9-3.7-7.8-2.8c-2.9,0.9-4.9,3.6-4.9,6.6
				v108.8c-4.1-2.4-8.8-3.7-13.9-3.7c-15.3,0-27.8,12.5-27.8,27.8s12.5,27.8,27.8,27.8s27.8-12.5,27.8-27.8V157.3
				c8.3,10.7,19.2,20.9,33.1,31.1c5.3,3.9,8.5,10.2,8.5,16.8c0,11.5-9.3,20.8-20.8,20.8c-3.8,0-6.9,3.1-6.9,6.9
				c0,3.8,3.1,6.9,6.9,6.9c19.1,0,34.7-15.6,34.7-34.7C235,194.3,229.7,183.8,220.8,177.3z M151.7,281.6c-7.7,0-13.9-6.2-13.9-13.9
				c0-7.7,6.2-13.9,13.9-13.9s13.9,6.2,13.9,13.9C165.6,275.4,159.3,281.6,151.7,281.6z"/>
		</g>
	</g>
</g>
</svg>
