<?xml version="1.0" encoding="utf-8"?>
<!-- Generator: Adobe Illustrator 25.2.1, SVG Export Plug-In . SVG Version: 6.00 Build 0)  -->
<svg version="1.1" id="Layer_1" xmlns="http://www.w3.org/2000/svg" xmlns:xlink="http://www.w3.org/1999/xlink" x="0px" y="0px"
	 viewBox="0 0 500 500" style="enable-background:new 0 0 500 500;" xml:space="preserve">
<style type="text/css">
	.st0{fill:#3552FF;}
	.st1{fill:#FFFFFF;}
	.st2{fill:#FF4343;}
	.st3{fill:#8E6BFE;}
	.st4{fill:#FFFFFF;stroke:#FFFFFF;stroke-width:0.25;stroke-miterlimit:10;}
	.st5{fill:#FFFFFF;fill-opacity:0;}
	.st6{fill:#8E6BFE;fill-opacity:0;}
	.st7{fill-rule:evenodd;clip-rule:evenodd;fill:#FFFFFF;stroke:#8E6BFE;stroke-width:1.4;stroke-miterlimit:10;}
	.st8{fill:#FFFFFF;stroke:#FFFFFF;stroke-width:3;stroke-miterlimit:10;}
	.st9{fill:#FFFFFF;stroke:#8E6BFE;stroke-miterlimit:10;}
	.st10{fill:#FFFFFF;stroke:#8E6BFE;stroke-width:0.5;stroke-miterlimit:10;}
	.st11{fill-rule:evenodd;clip-rule:evenodd;fill:#FFFFFF;}
	.st12{fill:#FFFFFF;stroke:#FFFFFF;stroke-miterlimit:10;}
</style>
<circle class="st3" cx="250" cy="250" r="216.8"/>
<path class="st1" d="M337.3,207.5c19.5-15.9,12.7-47.3-11.6-53.8c-6.4-1.7-12.9-1.3-19,0.9l-19.3-33.5c-7.9-13.6-27.4-14-35.7-0.7
	c-23.8,37.7-55.4,69.7-93,94.1c-2.1,1.4-2.9,4.2-1.7,6.6c0.2,0.4,32.2,55.8,32.4,56.2c1.4,2.4,4.4,3.2,6.8,1.8
	c2.4-1.4,3.2-4.4,1.8-6.8l-30-52c35.8-24,67.6-55.7,92.1-94.5c4.4-6.9,14.6-6.7,18.7,0.4L348,245.9c4.1,7.1-0.8,16-9,16.3
	c-46,1.8-91,13.5-132.1,34.6c-0.2,0.1-46.8,27-50,28.9c-8.3,4.8-19,1.9-23.9-6.4l-25.3-43.7c-4.8-8.3-1.9-19,6.4-23.9l30.4-17.5
	c2.4-1.4,3.2-4.4,1.8-6.8c-1.4-2.4-4.4-3.2-6.8-1.8l-30.4,17.5c-13.1,7.6-17.6,24.4-10,37.5l25.3,43.7c7.6,13.1,24.4,17.6,37.5,10
	l1.1-0.7l31.2,54c4.5,7.8,14.4,10.4,22.1,5.9l10.9-6.3c7.8-4.5,10.4-14.4,5.9-22.1l-22.1-38.3c-1.4-2.4-4.4-3.2-6.8-1.8
	c-2.4,1.4-3.2,4.4-1.8,6.8l22.1,38.3c1.7,3,0.7,6.8-2.3,8.5l-10.9,6.3c-3,1.7-6.8,0.7-8.5-2.3l-31.2-54l39.9-23
	c39.1-20,82.5-31.7,127.9-33.5c15.7-0.6,25.1-17.7,17.3-31.3L337.3,207.5z M335.9,173c4.9,8.5,3.2,19.1-3.7,25.6l-20.4-35.3
	C320.8,160.7,330.9,164.4,335.9,173z M384.7,150.9l-12.9,7.4c-2.4,1.4-5.4,0.6-6.8-1.8c-1.4-2.4-0.6-5.4,1.8-6.8l12.9-7.4
	c2.4-1.4,5.4-0.6,6.8,1.8C387.9,146.4,387.1,149.5,384.7,150.9z M329.2,122.4l3.1-11.7c0.7-2.7,3.4-4.2,6.1-3.5
	c2.7,0.7,4.2,3.4,3.5,6.1l-3.1,11.7c-0.7,2.7-3.4,4.2-6.1,3.5C330.1,127.8,328.5,125.1,329.2,122.4z M394.4,204.1
	c-0.6,2.2-2.6,3.7-4.8,3.7c-0.9,0-0.3,0.1-13-3.3c-2.7-0.7-4.2-3.4-3.5-6.1s3.4-4.2,6.1-3.5l11.7,3.1
	C393.6,198.7,395.1,201.4,394.4,204.1L394.4,204.1z"/>
</svg>
