<?xml version="1.0" encoding="utf-8"?>
<!-- Generator: Adobe Illustrator 25.2.1, SVG Export Plug-In . SVG Version: 6.00 Build 0)  -->
<svg version="1.1" id="Layer_1" xmlns="http://www.w3.org/2000/svg" xmlns:xlink="http://www.w3.org/1999/xlink" x="0px" y="0px"
	 viewBox="0 0 500 500" style="enable-background:new 0 0 500 500;" xml:space="preserve">
<style type="text/css">
	.st0{fill:#3552FF;}
	.st1{fill:#FFFFFF;}
	.st2{fill:#FF4343;}
	.st3{fill:#8E6BFE;}
	.st4{fill:#FFFFFF;stroke:#FFFFFF;stroke-width:0.25;stroke-miterlimit:10;}
	.st5{fill:#FFFFFF;fill-opacity:0;}
	.st6{fill:#8E6BFE;fill-opacity:0;}
	.st7{fill-rule:evenodd;clip-rule:evenodd;fill:#FFFFFF;stroke:#8E6BFE;stroke-width:1.4;stroke-miterlimit:10;}
	.st8{fill:#FFFFFF;stroke:#FFFFFF;stroke-width:3;stroke-miterlimit:10;}
	.st9{fill:#FFFFFF;stroke:#8E6BFE;stroke-miterlimit:10;}
	.st10{fill:#FFFFFF;stroke:#8E6BFE;stroke-width:0.5;stroke-miterlimit:10;}
	.st11{fill-rule:evenodd;clip-rule:evenodd;fill:#FFFFFF;}
	.st12{fill:#FFFFFF;stroke:#FFFFFF;stroke-miterlimit:10;}
</style>
<circle class="st3" cx="250" cy="250" r="216.8"/>
<g>
	<g>
		<path class="st1" d="M325.5,131.3c-2.6-14.6-6-27.9-6-28.1c-0.4-1.5-1.6-2.7-3.1-3.1c-1.5-0.4-3.1,0.1-4.2,1.2
			c-1.2,1.3-30.6,32.2-36.6,44.6c-5.6,11.5-2.6,25,6.3,33.2l-2.8,11.4c0,0,0,0,0,0.1l-12.5,43.4h-35l-14.2-78c0,0,0-0.1,0-0.1
			c0-0.1,0-0.2-0.1-0.3c0-0.1,0-0.1-0.1-0.2c0-0.1,0-0.1-0.1-0.2c0-0.1-0.1-0.1-0.1-0.2c0-0.1,0-0.1-0.1-0.2c0-0.1-0.1-0.2-0.1-0.2
			c0,0,0,0,0-0.1l-24.3-41.4c-0.9-1.6-2.7-2.4-4.5-2.1c-1.8,0.3-3.2,1.7-3.5,3.5l-8.1,47.3c0,0,0,0.1,0,0.1c0,0.1,0,0.2,0,0.3
			c0,0.1,0,0.1,0,0.2c0,0.1,0,0.1,0,0.2c0,0.1,0,0.2,0,0.2c0,0.1,0,0.1,0,0.2c0,0.1,0,0.2,0,0.3c0,0,0,0,0,0.1l12.9,70.5h-6.2
			c-2.4,0-4.3,1.9-4.3,4.3v34.1c0,2.4,1.9,4.3,4.3,4.3c2.4,0,4.3-1.9,4.3-4.3v-29.8h7.1c0,0,0,0,0,0c0,0,0,0,0,0h75.4c0,0,0,0,0,0
			c0,0,0,0,0,0h22.7c0,0,0,0,0,0h8.6v14.6h-97.5c-2.4,0-4.3,1.9-4.3,4.3c0,2.4,1.9,4.3,4.3,4.3h97.5v101.3c0,9-7.3,16.4-16.4,16.4
			h-81.2c-9,0-16.4-7.3-16.4-16.4v-75.1c0-2.4-1.9-4.3-4.3-4.3c-2.4,0-4.3,1.9-4.3,4.3v75.1c0,13.8,11.2,25,25,25h81.2
			c13.8,0,25-11.2,25-25V238.4c0-2.4-1.9-4.3-4.3-4.3h-7.7l7.5-36.9l2.8-11.4c0.8-0.2,1.6-0.4,2.3-0.7c7.2-2.5,12.9-7.6,16.2-14.4
			C328.5,167,330.3,158.8,325.5,131.3z M190.9,127.8l5.3,9.1l-7.1,1.3L190.9,127.8z M187.6,147.3l13.3-2.4l5.3,8.9l-20.3,3.7
			L187.6,147.3z M197.9,234.1l-12.4-67.8l24-4.4l13.2,72.2H197.9z M289,234.1h-13.5l10.7-37l7.3,1.8l2.6,0.6L289,234.1z M298,191.1
			l-9.5-2.3l1.1-4.5c3.1,1.4,6.3,2.2,9.5,2.4L298,191.1z M318.9,167c-2.3,4.8-6.3,8.3-11.3,10.1c-1.2,0.4-2.4,0.7-3.7,0.9
			c0,0-0.1,0-0.1,0c-3.9,0.5-7.8-0.1-11.4-1.8c-1.1-0.6-2.2-1.2-3.2-2c0,0,0,0,0,0c-3.1-2.3-5.5-5.6-6.8-9.4
			c-1.7-5-1.4-10.4,0.9-15.1c3.7-7.7,19.6-25.7,29.7-36.6C317.7,133.8,322,160.5,318.9,167z"/>
	</g>
</g>
<g>
	<g>
		<path class="st1" d="M285.4,279.6c-2.4,0-4.3,1.9-4.3,4.3v25.2c0,5.2-4.2,9.5-9.5,9.5c-5.2,0-9.5-4.2-9.5-9.5v-15.6
			c0-7.7-6.2-13.9-13.9-13.9c-7.7,0-13.9,6.2-13.9,13.9v34.3c0,5.6-4.6,10.2-10.2,10.2c-5.6,0-10.2-4.6-10.2-10.2v-24.4
			c0-2.4-1.9-4.3-4.3-4.3c-2.4,0-4.3,1.9-4.3,4.3v24.4c0,10.4,8.5,18.9,18.9,18.9c10.4,0,18.9-8.5,18.9-18.9v-34.3
			c0-2.9,2.4-5.3,5.3-5.3c2.9,0,5.3,2.4,5.3,5.3v15.6c0,10,8.1,18.1,18.1,18.1c10,0,18.1-8.1,18.1-18.1V284
			C289.8,281.6,287.8,279.6,285.4,279.6z"/>
	</g>
</g>
</svg>
