<?xml version="1.0" encoding="utf-8"?>
<!-- Generator: Adobe Illustrator 25.2.1, SVG Export Plug-In . SVG Version: 6.00 Build 0)  -->
<svg version="1.1" id="Layer_1" xmlns="http://www.w3.org/2000/svg" xmlns:xlink="http://www.w3.org/1999/xlink" x="0px" y="0px"
	 viewBox="0 0 500 500" style="enable-background:new 0 0 500 500;" xml:space="preserve">
<style type="text/css">
	.st0{fill:#3552FF;}
	.st1{fill:#FFFFFF;}
	.st2{fill:#FF4343;}
	.st3{fill:#8E6BFE;}
	.st4{fill:#FFFFFF;stroke:#FFFFFF;stroke-width:0.25;stroke-miterlimit:10;}
	.st5{fill:#FFFFFF;fill-opacity:0;}
	.st6{fill:#8E6BFE;fill-opacity:0;}
	.st7{fill-rule:evenodd;clip-rule:evenodd;fill:#FFFFFF;stroke:#8E6BFE;stroke-width:1.4;stroke-miterlimit:10;}
	.st8{fill:#FFFFFF;stroke:#FFFFFF;stroke-width:3;stroke-miterlimit:10;}
	.st9{fill:#FFFFFF;stroke:#8E6BFE;stroke-miterlimit:10;}
	.st10{fill:#FFFFFF;stroke:#8E6BFE;stroke-width:0.5;stroke-miterlimit:10;}
	.st11{fill-rule:evenodd;clip-rule:evenodd;fill:#FFFFFF;}
	.st12{fill:#FFFFFF;stroke:#FFFFFF;stroke-miterlimit:10;}
</style>
<circle class="st3" cx="250" cy="250" r="216.8"/>
<path class="st11" d="M295.1,132.7L295.1,132.7c8.8,0,15.9,7.1,15.9,15.9c0,8.8-7.1,15.9-15.9,15.9c-8.8,0-15.9-7.1-15.9-15.9
	C279.2,139.8,286.3,132.7,295.1,132.7z M295.1,175.2L295.1,175.2c14.7,0,26.6-11.9,26.6-26.6c0-14.7-11.9-26.6-26.6-26.6
	c-14.7,0-26.6,11.9-26.6,26.6C268.5,163.3,280.5,175.2,295.1,175.2z"/>
<path class="st11" d="M350.2,246.5L350.2,246.5c-25.6,0-25.6,0-25.6,0c-3,0-6-0.4-8.9-1.2c-6.5-1.6-12.1-5-16.7-9.6
	c0-16.4,0-16.4,0-16.4c0.4,0.6,1,1,1.4,1.4c8.7,10,21.4,15.6,34.5,15.6c15.3,0,15.3,0,15.3,0V246.5z M329.8,304.1L329.8,304.1
	c0,64.1,0,64.1,0,64.1c-10.3,0-10.3,0-10.3,0c0-55.7,0-55.7,0-55.7c0-1.6-0.8-3.2-2-4.2c-40.9-30.4-40.9-30.4-40.9-30.4
	c-1.4-1-2.8-1.2-4.4-0.8c-1.4,0.4-2.8,1.4-3.4,2.8c-39.5,88.3-39.5,88.3-39.5,88.3c-10.5,0-10.5,0-10.5,0
	c40.3-156,40.3-156,40.3-156c0.6-2-0.2-4.2-1.8-5.4c-1.8-1.2-4-1.2-5.8,0C219.6,227,219.6,227,219.6,227c-1.2,0.8-2,1.8-2.2,3
	c-9.3,36.7-9.3,36.7-9.3,36.7c-10.3,0-10.3,0-10.3,0c8.7-42.7,8.7-42.7,8.7-42.7c47.8-38,47.8-38,47.8-38
	c34.7,8.6,34.7,8.6,34.7,8.6c0,56.9,0,56.9,0,56.9c0,1.2,0.4,2.2,1,3.2L329.8,304.1z M355.4,226.2L355.4,226.2
	c-20.6,0-20.6,0-20.6,0c-10.3,0-20-4.4-26.8-12c-5.8-6.6-9.1-14.8-9.1-23.6c0-2.2-1.6-4.2-3.8-4.8c-40.9-10.2-40.9-10.2-40.9-10.2
	c-1.6-0.4-3.2,0-4.4,1c-51.2,40.6-51.2,40.6-51.2,40.6c-1,0.8-1.6,1.8-1.8,3c-10.3,50.7-10.3,50.7-10.3,50.7c-0.2,1.4,0.2,3,1.2,4.2
	c0.8,1.2,2.4,1.8,3.8,1.8c20.6,0,20.6,0,20.6,0c2.2,0,4.4-1.6,4.8-3.8c9.9-38.7,9.9-38.7,9.9-38.7c19.1-12.2,19.1-12.2,19.1-12.2
	C207.1,372,207.1,372,207.1,372c-0.4,1.6,0,3.2,1,4.4c1,1.2,2.4,2,4,2c20.4,0,20.4,0,20.4,0c2,0,3.8-1.2,4.8-3
	c38.3-85.5,38.3-85.5,38.3-85.5c33.7,25,33.7,25,33.7,25c0,58.3,0,58.3,0,58.3c0,2.8,2.4,5.2,5.3,5.2c20.4,0,20.4,0,20.4,0
	c2.8,0,5.2-2.4,5.2-5.2c0-70.9,0-70.9,0-70.9c0-1.2-0.4-2.2-1.2-3.2C299,249.7,299,249.7,299,249.7c0-0.8,0-0.8,0-0.8
	c4.4,2.8,9.1,5,14.1,6.2c3.8,1,7.7,1.4,11.5,1.4c30.8,0,30.8,0,30.8,0c2.8,0,5.1-2.2,5.1-5c0-20.4,0-20.4,0-20.4
	C360.4,228.4,358.2,226.2,355.4,226.2z"/>
<path class="st11" d="M161.8,276.8L161.8,276.8c-52.5,0-52.5,0-52.5,0c-2.9,0-5.2-2.1-5.2-4.7s2.3-4.9,5.2-4.9c52.5,0,52.5,0,52.5,0
	c2.9,0,5.2,2.3,5.2,4.9S164.7,276.8,161.8,276.8"/>
<path class="st11" d="M171.5,233.3L171.5,233.3c-62.3,0-62.3,0-62.3,0c-2.8,0-5.1-2.3-5.1-4.9s2.3-4.7,5.1-4.7c62.3,0,62.3,0,62.3,0
	c2.9,0,5.1,2.1,5.1,4.7S174.4,233.3,171.5,233.3"/>
<path class="st11" d="M200.6,194.6L200.6,194.6c-91.6,0-91.6,0-91.6,0c-2.8,0-5-2.3-5-4.9c0-2.7,2.2-4.7,5-4.7c91.6,0,91.6,0,91.6,0
	c2.8,0,5,2.1,5,4.7C205.6,192.3,203.4,194.6,200.6,194.6"/>
</svg>
