<?xml version="1.0" encoding="utf-8"?>
<!-- Generator: Adobe Illustrator 25.2.1, SVG Export Plug-In . SVG Version: 6.00 Build 0)  -->
<svg version="1.1" id="Layer_1" xmlns="http://www.w3.org/2000/svg" xmlns:xlink="http://www.w3.org/1999/xlink" x="0px" y="0px"
	 viewBox="0 0 500 500" style="enable-background:new 0 0 500 500;" xml:space="preserve">
<style type="text/css">
	.st0{fill:#3552FF;}
	.st1{fill:#FFFFFF;}
	.st2{fill:#FF4343;}
	.st3{fill:#8E6BFE;}
	.st4{fill:#FFFFFF;stroke:#FFFFFF;stroke-width:0.25;stroke-miterlimit:10;}
	.st5{fill:#FFFFFF;fill-opacity:0;}
	.st6{fill:#8E6BFE;fill-opacity:0;}
	.st7{fill-rule:evenodd;clip-rule:evenodd;fill:#FFFFFF;stroke:#8E6BFE;stroke-width:1.4;stroke-miterlimit:10;}
	.st8{fill:#FFFFFF;stroke:#FFFFFF;stroke-width:3;stroke-miterlimit:10;}
	.st9{fill:#FFFFFF;stroke:#8E6BFE;stroke-miterlimit:10;}
	.st10{fill:#FFFFFF;stroke:#8E6BFE;stroke-width:0.5;stroke-miterlimit:10;}
	.st11{fill-rule:evenodd;clip-rule:evenodd;fill:#FFFFFF;}
	.st12{fill:#FFFFFF;stroke:#FFFFFF;stroke-miterlimit:10;}
</style>
<circle class="st3" cx="250" cy="250" r="216.8"/>
<g>
	<g>
		<path class="st12" d="M345.7,142.9c-37-37.1-97-37.2-134.1-0.2c-35.8,35.7-37.3,93.2-3.4,130.7l-7.2,7.2c-5.9-5.9-15.3-5.9-21.2,0
			c0,0,0,0,0,0l-49.5,49.5c-5.9,5.9-5.9,15.3,0,21.2c0,0,0,0,0,0l7.1,7.1c5.9,5.9,15.3,5.9,21.2,0l49.5-49.5
			c5.9-5.9,5.9-15.3,0-21.2c0,0,0,0,0,0l7.2-7.2c38.9,35.1,98.8,32.1,134-6.8C383.1,236.1,381.6,178.6,345.7,142.9z M200.9,301.8
			l-49.5,49.5c-2,2-5.1,2-7.1,0l-7.1-7.1c-1.9-2-1.9-5.1,0-7.1l49.5-49.5c2-1.9,5.1-1.9,7.1,0l7.1,7.1
			C202.9,296.7,202.9,299.9,200.9,301.8z M338.7,270c-33.2,33.2-86.9,33.2-120.1,0s-33.2-86.9,0-120.1c33.2-33.2,86.9-33.2,120.1,0
			C371.8,183.1,371.8,236.9,338.7,270z"/>
	</g>
</g>
<g>
	<g>
		<path class="st12" d="M331.6,157L331.6,157l-7.1,7.1c25.3,25.4,25.3,66.5,0,91.8l7.1,7.1C360.8,233.7,360.8,186.3,331.6,157z"/>
	</g>
</g>
</svg>
