<?xml version="1.0" encoding="utf-8"?>
<!-- Generator: Adobe Illustrator 25.2.1, SVG Export Plug-In . SVG Version: 6.00 Build 0)  -->
<svg version="1.1" id="Layer_1" xmlns="http://www.w3.org/2000/svg" xmlns:xlink="http://www.w3.org/1999/xlink" x="0px" y="0px"
	 viewBox="0 0 500 500" style="enable-background:new 0 0 500 500;" xml:space="preserve">
<style type="text/css">
	.st0{fill:#3552FF;}
	.st1{fill:#FFFFFF;}
	.st2{fill:#FF4343;}
	.st3{fill:#8E6BFE;}
	.st4{fill:#FFFFFF;stroke:#FFFFFF;stroke-width:0.25;stroke-miterlimit:10;}
	.st5{fill:#FFFFFF;fill-opacity:0;}
	.st6{fill:#8E6BFE;fill-opacity:0;}
	.st7{fill-rule:evenodd;clip-rule:evenodd;fill:#FFFFFF;stroke:#8E6BFE;stroke-width:1.4;stroke-miterlimit:10;}
	.st8{fill:#FFFFFF;stroke:#FFFFFF;stroke-width:3;stroke-miterlimit:10;}
	.st9{fill:#FFFFFF;stroke:#8E6BFE;stroke-miterlimit:10;}
	.st10{fill:#FFFFFF;stroke:#8E6BFE;stroke-width:0.5;stroke-miterlimit:10;}
	.st11{fill-rule:evenodd;clip-rule:evenodd;fill:#FFFFFF;}
	.st12{fill:#FFFFFF;stroke:#FFFFFF;stroke-miterlimit:10;}
</style>
<circle class="st3" cx="250" cy="250" r="216.8"/>
<g>
	<path class="st1" d="M232.9,364.7c-4.4,0-14.8-0.6-17.9-5.7c-0.9-1.6-0.6-3.6,0.7-4.8c0.4-0.4,11.2-10.5,8.3-27.9
		c-1.9-11.5-7.5-17.6-12-22.4c-2.9-3.2-5.5-6-6.5-9.6c-2.2-7.9-1.9-13,5.5-17.8c1.3-0.9,2.2-2.1,2.4-3.6c0.3-2.1-0.6-4.5-2.4-6.6
		c-4-4.6-11.2-6.5-28.6-10.9l-1-0.3c-22-5.6-26.8-18.8-31.5-38.2c-2.6-10.7,1.6-33,1.7-34l7.5,1.4c-1.1,6-3.7,23.2-1.8,30.7
		c4.2,17.2,7.7,28,26,32.7l1,0.3c18.5,4.7,26.9,6.8,32.5,13.3c3.3,3.8,4.8,8.3,4.2,12.7c-0.5,3.7-2.6,6.9-5.8,8.9
		c-3.3,2.1-4,2.9-2.3,9.4c0.5,1.8,2.5,4,4.7,6.4c4.9,5.3,11.5,12.6,13.9,26.3c2.5,15-3.4,25.8-7.4,31.1c1.8,0.4,4.2,0.8,6.7,0.9
		l5.5-8.7c6.7-10.6,23.5-19.6,33.6-25l2.2-1.2c9-4.9,15.2-11.1,19.8-19.8c3.9-7.3,3.2-13.5-1.8-18.3c-1.7-1.7-4-1.2-8.5,0.2
		c-2.8,0.9-5.7,1.8-8.7,1.4c-6.1-0.8-7.4-4.2-9.2-8.5c-0.7-1.8-1.7-4.2-3.2-7.1c-3.8-7.4-14.1-9.3-18.5-10.1
		c-0.6-0.1-1.1-0.2-1.5-0.3c-2.8-0.6-5.6-1.2-16.5,3.2c-0.9,0.4-2,0.4-2.9,0c-0.9-0.4-1.7-1.2-2-2.1c-2.8-7.5-9.5-10.8-16.6-14.2
		c-2.3-1.1-4.7-2.3-6.9-3.6c-8.9-5.2-11.5-12-7.7-20.1c3-6.4,11.8-8,18.2-5.5c2.9,1.1,6,0.1,13.3-4.5c4.7-3,6.2-8.8,7.4-13.1
		c0.4-1.5,0.7-2.8,1.2-3.8c2-4.9,8-10.3,16.2-14.6c4-2.1,3.9-2.9,3.2-5.4c-1.8-0.5-6.2-0.7-8.7-0.8c-3.5-0.2-6.6-0.3-8.5-0.9
		c-3.7-1.2-5.8-4.3-7.4-6.6c-0.2-0.3-0.5-0.7-0.7-1.1c-0.6,0.7-1.2,1.6-1.7,2.3c-1,1.4-2.2,3.1-3.6,4.7c-2.5,3-5.2,3.4-7,3.2
		c-4.9-0.5-8-5.7-10.6-10.6c-2.1-3.9-3.9-14.2-4.3-16.3l7.5-1.3c0.8,4.6,2.4,11.9,3.5,14c2.6,4.9,4,6.2,4.6,6.5
		c0.1-0.1,0.3-0.2,0.5-0.5c1.2-1.4,2.3-2.9,3.2-4.2c2.6-3.6,6.1-8.4,10.9-5.5c1.8,1.1,2.9,2.8,4.1,4.5c1,1.5,2.2,3.2,3.3,3.6
		c1,0.3,4.1,0.5,6.6,0.6c7.7,0.3,14.4,0.6,15.5,5.6l0.2,0.9c0.8,3.2,2.4,9.3-7.1,14.2c-7.2,3.7-11.6,8.1-12.6,10.6
		c-0.3,0.6-0.5,1.8-0.9,2.9c-1.3,4.9-3.4,13-10.7,17.6c-7.2,4.6-13.3,7.9-20.1,5.2c-3.2-1.3-7.6-0.4-8.5,1.7
		c-1.3,2.8-2.8,5.9,4.6,10.2c2,1.2,4.2,2.2,6.4,3.3c6.8,3.3,14.4,7.1,18.8,14.9c9.6-3.5,13.6-3.1,17.6-2.2c0.3,0.1,0.8,0.1,1.2,0.2
		c5.5,1,18.5,3.4,24,14.1c1.7,3.3,2.7,5.9,3.5,7.7c1.5,3.6,1.5,3.6,3.1,3.8c1.3,0.2,3.4-0.5,5.4-1.1c4.6-1.4,10.8-3.3,16,1.6
		c7.6,7.3,8.8,17,3.3,27.4c-5.2,9.9-12.7,17.4-22.9,22.9l-2.3,1.2c-8.8,4.7-25.1,13.5-30.8,22.4l-6.7,10.5
		C235.4,364,234.2,364.7,232.9,364.7z"/>
	<path class="st1" d="M252.4,167.3c-2.5,0-4.9-0.8-7.2-2.3c-8.2-5.5-8.1-12.7-8.1-16.2c0-0.5,0-0.9,0-1.2c0-0.2-0.1-0.5-0.1-0.7
		c0-2.4-0.3-5.3-0.7-6.1c0.1,0.2,0.6,0.9,1.5,1.3l4.3-9.2c1.4,0.6,5,2.3,5,13.6c0.1,0.8,0.1,1.6,0.1,2.3c0,2.9,0,5.2,3.7,7.7
		c1,0.7,1.7,0.6,2.2,0.5c1.7-0.5,3.3-2.5,3.6-3.4c1.4-3.2-1-6.3-4.4-10.2c-0.9-1-1.7-2-2.3-2.8l8.2-6c0.5,0.6,1.1,1.3,1.8,2.1
		c3.5,4,10.1,11.5,6.2,20.8c-1.4,3.4-5.2,7.7-10.1,9.2C254.8,167.1,253.6,167.3,252.4,167.3z"/>
	<path class="st1" d="M361.7,250.5c-6.2,0-18-4.1-22.3-7.5c-5.3-4-10.9-13.2-10.9-23.9c0-8,3-14.7,5.2-19.7c0.8-1.8,1.9-4.4,2-5.1
		c-0.2-0.9-3.5-2-5.7-2.8c-0.9-0.3-1.7-0.6-2.6-0.9c-6.8-2.6-11.4-7.6-12.6-13.6c-1.7-8.9,0.7-16.5,0.8-16.8l7.2,2.4l-3.6-1.2
		l3.6,1.2c0,0.1-1.9,6.1-0.6,13c0.9,4.8,5.8,7.1,7.8,7.9c0.8,0.3,1.5,0.6,2.3,0.8c4.3,1.5,9.5,3.3,10.7,8.5c0.6,2.8-0.7,5.7-2.5,9.7
		c-2,4.5-4.6,10.2-4.6,16.6c0,8.7,4.8,15.4,7.9,17.8c3.7,2.8,14.8,6.2,18.1,5.9l0.7,7.6C362.5,250.4,362.1,250.5,361.7,250.5z"/>
	<path class="st1" d="M249.3,369c-4.4,0-8.9-0.2-13.4-0.7c-65.4-7.3-112.6-66.3-105.4-131.7c7.3-65.4,66.3-112.6,131.7-105.4
		c65.4,7.3,112.6,66.3,105.4,131.7l-5-0.6l5,0.6c-3.5,31.7-19.1,60.1-44,80C302.2,359.9,276.2,369,249.3,369z M248.9,140.6
		c-54.8,0-102.2,41.3-108.3,97.1c-6.6,59.8,36.6,113.8,96.4,120.5c4.1,0.5,8.1,0.7,12.1,0.7c54.8,0,102.2-41.3,108.3-97.1l0,0
		c6.6-59.8-36.6-113.8-96.4-120.5C257,140.9,252.9,140.6,248.9,140.6z"/>
</g>
</svg>
