<?xml version="1.0" encoding="utf-8"?>
<!-- Generator: Adobe Illustrator 25.2.1, SVG Export Plug-In . SVG Version: 6.00 Build 0)  -->
<svg version="1.1" id="Layer_1" xmlns="http://www.w3.org/2000/svg" xmlns:xlink="http://www.w3.org/1999/xlink" x="0px" y="0px"
	 viewBox="0 0 500 500" style="enable-background:new 0 0 500 500;" xml:space="preserve">
<style type="text/css">
	.st0{fill:#3552FF;}
	.st1{fill:#FFFFFF;}
	.st2{fill:#FF4343;}
	.st3{fill:#8E6BFE;}
	.st4{fill:#FFFFFF;stroke:#FFFFFF;stroke-width:0.25;stroke-miterlimit:10;}
	.st5{fill:#FFFFFF;fill-opacity:0;}
	.st6{fill:#8E6BFE;fill-opacity:0;}
	.st7{fill-rule:evenodd;clip-rule:evenodd;fill:#FFFFFF;stroke:#8E6BFE;stroke-width:1.4;stroke-miterlimit:10;}
	.st8{fill:#FFFFFF;stroke:#FFFFFF;stroke-width:3;stroke-miterlimit:10;}
	.st9{fill:#FFFFFF;stroke:#8E6BFE;stroke-miterlimit:10;}
	.st10{fill:#FFFFFF;stroke:#8E6BFE;stroke-width:0.5;stroke-miterlimit:10;}
	.st11{fill-rule:evenodd;clip-rule:evenodd;fill:#FFFFFF;}
	.st12{fill:#FFFFFF;stroke:#FFFFFF;stroke-miterlimit:10;}
</style>
<g>
	<circle class="st3" cx="250" cy="250" r="216.8"/>
	<g>
		<path class="st8" d="M144.6,343.6c29.5,0,59.1,3.4,87.9,10c5.7,1.3,11.6-0.6,15.4-5l2.1-2.5l2.1,2.5c3.8,4.4,9.7,6.3,15.4,5
			c28.8-6.6,58.3-10,87.9-10h30c1,0,1.8-0.8,1.8-1.8V168.9c0-1-0.8-1.8-1.8-1.8c-1,0-1.8,0.8-1.8,1.8v171h-28.2
			c-29.8,0-59.6,3.4-88.7,10.1c-4.9,1.1-10-0.9-12.8-5.1l-1.6-2.5l2.5-1.5c17.1-10.5,36.8-16,56.9-16h55.1c1,0,1.8-0.8,1.8-1.8
			v-32.7c0-1-0.8-1.8-1.8-1.8c-1,0-1.8,0.8-1.8,1.8v30.9h-53.2c0,0-0.1,0-0.1,0c-19.4,0-38.6,5.1-55.5,14.6l-4.2,2.4v-132
			c0-1-0.8-1.8-1.8-1.8c-1,0-1.8,0.8-1.8,1.8v132l-4.2-2.4c-16.9-9.6-36.1-14.6-55.5-14.6c0,0-0.1,0-0.1,0H135V147.4h74.8
			c21.1,0,38.3,17.2,38.3,38.4c0,1,0.8,1.8,1.8,1.8c1,0,1.8-0.8,1.8-1.8c0-21.1,17.2-38.4,38.3-38.4H365v124.3c0,1,0.8,1.8,1.8,1.8
			c1,0,1.8-0.8,1.8-1.8V145.5c0-1-0.8-1.8-1.8-1.8h-76.6c-16.1,0-30.5,9-37.6,23.3l-2.5,5.1l-2.5-5.1c-7.2-14.4-21.6-23.3-37.6-23.3
			h-76.6c-1,0-1.8,0.8-1.8,1.8V323c0,1,0.8,1.8,1.8,1.8h55.1c20.1,0,39.8,5.6,56.9,16l2.5,1.5l-1.7,2.5c-2.8,4.2-7.9,6.2-12.8,5.1
			c-29.1-6.7-58.9-10.1-88.7-10.1h-28.2v-171c0-1-0.8-1.8-1.8-1.8c-1,0-1.8,0.8-1.8,1.8v172.9c0,1,0.8,1.8,1.8,1.8H144.6z"/>
		<path class="st8" d="M209.8,180C209.8,180,209.8,180,209.8,180c7.6,0,15,2.2,21.3,6.4c0.4,0.3,0.9,0.4,1.4,0.3
			c0.5-0.1,0.9-0.4,1.2-0.8s0.4-0.9,0.3-1.4c-0.1-0.4-0.3-0.8-0.6-1l-0.2-0.1c-6.9-4.6-15-7-23.3-7c0,0,0,0,0,0l-53.3,0.2
			c-1,0-1.8,0.8-1.8,1.8c0,1,0.8,1.8,1.8,1.8L209.8,180z"/>
		<path class="st8" d="M209.8,202.7C209.8,202.7,209.8,202.7,209.8,202.7c7.6,0,15,2.2,21.3,6.4c0.4,0.3,0.9,0.4,1.4,0.3
			c0.5-0.1,0.9-0.4,1.2-0.8s0.4-0.9,0.3-1.4c-0.1-0.4-0.3-0.8-0.6-1l-0.2-0.1c-6.9-4.6-15-7-23.3-7c0,0,0,0,0,0l-53.3,0.2
			c-1,0-1.8,0.8-1.8,1.8c0,1,0.8,1.8,1.8,1.8L209.8,202.7z"/>
		<path class="st8" d="M208.4,225.4C208.4,225.4,208.4,225.4,208.4,225.4c7.6,0,15,2.2,21.3,6.4c0.4,0.3,0.9,0.4,1.4,0.3
			c0.5-0.1,0.9-0.4,1.2-0.8s0.4-0.9,0.3-1.4c-0.1-0.4-0.3-0.8-0.6-1l-0.2-0.1c-6.9-4.6-15-7-23.3-7c0,0,0,0,0,0l-53.3,0.2
			c-1,0-1.8,0.8-1.8,1.8c0,1,0.8,1.8,1.8,1.8L208.4,225.4z"/>
		<path class="st8" d="M208.4,248.1C208.4,248.1,208.4,248.1,208.4,248.1c7.6,0,15,2.2,21.3,6.4c0.4,0.3,0.9,0.4,1.4,0.3
			c0.5-0.1,0.9-0.4,1.2-0.8s0.4-0.9,0.3-1.4c-0.1-0.4-0.3-0.8-0.6-1l-0.2-0.1c-6.9-4.6-15-7-23.3-7c0,0,0,0,0,0l-53.3,0.2
			c-1,0-1.8,0.8-1.8,1.8c0,1,0.8,1.8,1.8,1.8L208.4,248.1z"/>
		<path class="st8" d="M208.4,270.9C208.4,270.9,208.4,270.9,208.4,270.9c7.6,0,15,2.2,21.3,6.4c0.4,0.3,0.9,0.4,1.4,0.3
			c0.5-0.1,0.9-0.4,1.2-0.8s0.4-0.9,0.3-1.4c-0.1-0.4-0.3-0.8-0.6-1l-0.2-0.1c-6.9-4.6-15-7-23.3-7c0,0,0,0,0,0l-53.3,0.2
			c-1,0-1.8,0.8-1.8,1.8c0,1,0.8,1.8,1.8,1.8L208.4,270.9z"/>
		<path class="st8" d="M208.4,293.6C208.4,293.6,208.4,293.6,208.4,293.6c7.6,0,15,2.2,21.3,6.4c0.4,0.3,0.9,0.4,1.4,0.3
			c0.5-0.1,0.9-0.4,1.2-0.8s0.4-0.9,0.3-1.4c-0.1-0.4-0.3-0.8-0.6-1l-0.2-0.1c-6.9-4.6-15-7-23.3-7c0,0,0,0,0,0l-53.3,0.2
			c-1,0-1.8,0.8-1.8,1.8c0,1,0.8,1.8,1.8,1.8L208.4,293.6z"/>
		<g>
			<path class="st8" d="M291.8,180C291.7,180,291.7,180,291.8,180c-7.6,0-15,2.2-21.3,6.4c-0.4,0.3-0.9,0.4-1.4,0.3
				c-0.5-0.1-0.9-0.4-1.2-0.8s-0.4-0.9-0.3-1.4c0.1-0.4,0.3-0.8,0.6-1l0.2-0.1c6.9-4.6,15-7,23.3-7c0,0,0,0,0,0l53.3,0.2
				c1,0,1.8,0.8,1.8,1.8c0,1-0.8,1.8-1.8,1.8L291.8,180z"/>
			<path class="st8" d="M291.8,202.7C291.7,202.7,291.7,202.7,291.8,202.7c-7.6,0-15,2.2-21.3,6.4c-0.4,0.3-0.9,0.4-1.4,0.3
				c-0.5-0.1-0.9-0.4-1.2-0.8s-0.4-0.9-0.3-1.4c0.1-0.4,0.3-0.8,0.6-1l0.2-0.1c6.9-4.6,15-7,23.3-7c0,0,0,0,0,0l53.3,0.2
				c1,0,1.8,0.8,1.8,1.8c0,1-0.8,1.8-1.8,1.8L291.8,202.7z"/>
			<path class="st8" d="M293.2,225.4C293.2,225.4,293.1,225.4,293.2,225.4c-7.6,0-15,2.2-21.3,6.4c-0.4,0.3-0.9,0.4-1.4,0.3
				c-0.5-0.1-0.9-0.4-1.2-0.8s-0.4-0.9-0.3-1.4c0.1-0.4,0.3-0.8,0.6-1l0.2-0.1c6.9-4.6,15-7,23.3-7c0,0,0,0,0,0l53.3,0.2
				c1,0,1.8,0.8,1.8,1.8c0,1-0.8,1.8-1.8,1.8L293.2,225.4z"/>
			<path class="st8" d="M293.2,248.1C293.2,248.1,293.1,248.1,293.2,248.1c-7.6,0-15,2.2-21.3,6.4c-0.4,0.3-0.9,0.4-1.4,0.3
				c-0.5-0.1-0.9-0.4-1.2-0.8s-0.4-0.9-0.3-1.4c0.1-0.4,0.3-0.8,0.6-1l0.2-0.1c6.9-4.6,15-7,23.3-7c0,0,0,0,0,0l53.3,0.2
				c1,0,1.8,0.8,1.8,1.8c0,1-0.8,1.8-1.8,1.8L293.2,248.1z"/>
			<path class="st8" d="M293.2,270.9C293.2,270.9,293.1,270.9,293.2,270.9c-7.6,0-15,2.2-21.3,6.4c-0.4,0.3-0.9,0.4-1.4,0.3
				c-0.5-0.1-0.9-0.4-1.2-0.8s-0.4-0.9-0.3-1.4c0.1-0.4,0.3-0.8,0.6-1l0.2-0.1c6.9-4.6,15-7,23.3-7c0,0,0,0,0,0l53.3,0.2
				c1,0,1.8,0.8,1.8,1.8c0,1-0.8,1.8-1.8,1.8L293.2,270.9z"/>
			<path class="st8" d="M293.2,293.6C293.2,293.6,293.1,293.6,293.2,293.6c-7.6,0-15,2.2-21.3,6.4c-0.4,0.3-0.9,0.4-1.4,0.3
				c-0.5-0.1-0.9-0.4-1.2-0.8s-0.4-0.9-0.3-1.4c0.1-0.4,0.3-0.8,0.6-1l0.2-0.1c6.9-4.6,15-7,23.3-7c0,0,0,0,0,0l53.3,0.2
				c1,0,1.8,0.8,1.8,1.8c0,1-0.8,1.8-1.8,1.8L293.2,293.6z"/>
		</g>
	</g>
</g>
</svg>
